<svg id="Réteg_1" data-name="Réteg 1" xmlns="http://www.w3.org/2000/svg" xmlns:xlink="http://www.w3.org/1999/xlink" viewBox="0 0 180 175.68"><defs><style>.cls-1{fill:url(#Névtelen_színátmenet_2);}.cls-2{fill:#965d7b;}.cls-3{fill:#575988;}.cls-4{opacity:0.05;}.cls-4,.cls-6,.cls-7{isolation:isolate;}.cls-5{fill:#f7c4a7;}.cls-6{opacity:0.1;}.cls-7{fill:#fff;opacity:0.07;}.cls-8{fill:#fc6681;}</style><linearGradient id="Névtelen_színátmenet_2" x1="284.18" y1="-67.27" x2="284.18" y2="108.41" gradientTransform="matrix(1, 0, 0, -1, -194.18, 112.73)" gradientUnits="userSpaceOnUse"><stop offset="0" stop-color="gray" stop-opacity="0.25"/><stop offset="0.54" stop-color="gray" stop-opacity="0.12"/><stop offset="1" stop-color="gray" stop-opacity="0.1"/></linearGradient></defs><title>healthy</title><path class="cls-1" d="M155.09,141.1l-19-15.16s-1.53-6.31-2.14-10.73-1.54-23.36-1.54-23.36a28.35,28.35,0,0,0,.87-5l.56-.14a9.58,9.58,0,0,0,6.4-5.73c2-5-.57-11-3.76-15s-7.22-7.21-9.32-12.17c-2.59-6.1-1.71-13.49-3-20.17a6.23,6.23,0,0,0-1-2.61c-.82-1.06-2.11-1.29-3.25-1.71-3.62-1.34-6.34-5-8.46-8.81-3.44-6.18-7-15.59-14.06-16.13-2.63-.2-5.37.72-8,.72a85.57,85.57,0,0,0-12.29.64,8.13,8.13,0,0,0-4.19,1.48c-4.18,3.44-2.29,12.53-6.32,16.23-1.19,1.09-2.73,1.49-4.08,2.25-5.11,2.84-7.38,10.41-7.08,17.22.14,3.2.78,6.52,2.6,8.85,1.44,1.87,3.48,2.94,4.83,4.91C65,59.82,64.67,64,64.44,68.32c-2.89,1.25-5.21,2.7-5.94,4.25C56,77.79,56.34,95.64,56.34,95.64s.92,29.2-6.13,32.85L23.84,147.44S5.13,130.55.53,140.49c-3.14,6.81,8.34,10.65,15.92,12.41-4.78,3.52-7.42,10-5.19,14.43C14.78,174.28,24.6,179,24.6,179s37.48,1.88,54.8-2.15h.28c7.36,1.38,17.91,2.84,26.37,2,.16.41.28.66.28.66s54.28,4.74,64.09-14.52c5-9.88-.22-14.44-6.53-16.54,7.06-.58,15.11-2.63,16-8.88C181.61,128.15,155.09,141.1,155.09,141.1Zm-5.47,6a53.8,53.8,0,0,1-22.29,3.69c-2.11-4.78-10.91-25.47-11.14-39.32a16.2,16.2,0,0,1,1.78-7.82c2.55-4.37,3.31-7.8,3.22-10.4v-.57a11,11,0,0,0-.21-2.36,6.49,6.49,0,0,1,.36,3.38c-.92,4.89,1.53,36.62,1.53,36.62s2,7.11,6.13,9.16Zm-97.28-2.25,9.54-6.32A9.69,9.69,0,0,0,66.79,131l3.14-25.65a30.39,30.39,0,0,0,.84,3.25,25.65,25.65,0,0,1,.83,7.08c-.12,14.32-4.81,38.06-4.81,38.06h0a.65.65,0,0,1,0,.17l-.33,0c-7.71-.24-25.69-.94-35.75-2.38Zm-16.62,15v0H33.37Z" transform="translate(0 -4.32)"/><path class="cls-2" d="M110.7,23.06c2,3.72,4.68,7.3,8.2,8.59,1.1.4,2.34.63,3.12,1.67a6.08,6.08,0,0,1,1,2.54c1.28,6.51.42,13.71,2.93,19.67,2,4.82,5.92,8,9,11.85s5.51,9.71,3.64,14.63a9.32,9.32,0,0,1-6.19,5.59,17.47,17.47,0,0,1-7.91-.06c-3.46-.64-7-1.62-9.87-4.06-5-4.21-7.09-11.76-9.7-18.48-1.23-3.15-2.86-6.45-5.55-7.57-3.09-1.29-6.56.86-8.56,4s-2.89,7.13-3.86,11c-1.1,4.31-2.48,8.79-5.36,11.61a8.77,8.77,0,0,1-9.62,2c-3.2-1.38-5.73-4.89-6.47-9C64.33,70.79,67,63.27,63.7,58.31c-1.29-1.92-3.27-3-4.66-4.78C57.3,51.25,56.67,48,56.53,44.9c-.29-6.64,1.9-14,6.84-16.8,1.32-.73,2.79-1.12,3.95-2.19,3.91-3.6,2.06-12.46,6.11-15.82a7.89,7.89,0,0,1,4-1.45A81.27,81.27,0,0,1,89.35,8c2.57,0,5.23-.89,7.76-.7C104,7.85,107.38,17,110.7,23.06Z" transform="translate(0 -4.32)"/><polygon class="cls-3" points="37.39 153.02 38.88 171.42 143.5 170.77 141.51 150.68 106.14 146.41 44.11 150.3 37.39 153.02"/><polygon class="cls-4" points="37.39 153.02 38.88 171.42 143.5 170.77 141.51 150.68 106.14 146.41 44.11 150.3 37.39 153.02"/><path class="cls-5" d="M106.23,170.2,71.4,173.59s23.86,6.31,37.79,3.24Z" transform="translate(0 -4.32)"/><path class="cls-6" d="M106.23,170.2,71.4,173.59s23.86,6.31,37.79,3.24Z" transform="translate(0 -4.32)"/><path class="cls-5" d="M79.7,40.59s6.82,18.63-3.26,26.94-1.78,31.56-1.78,31.56l38.83-1.85s3.85-26.17,1.78-31.71c0,0-9.19,2.77-11.27-3.08s-3.55-21.86-3.55-21.86Z" transform="translate(0 -4.32)"/><path class="cls-3" d="M70.8,153.27S38.05,152.5,28.42,150s-17.93,9.41-14.52,16.2,12.88,11.39,12.88,11.39,48.77,2.46,59.29-4.46c0,0,4-11.86,0-14.17H35.24l37.49-.77Z" transform="translate(0 -4.32)"/><path class="cls-3" d="M122.82,149.73s11,2.46,26.09-3.7c0,0,28.31-.92,18.82,17.85S105.78,178,105.78,178s-3.12-6.92,0-8.77,30.24-13.7,38.68-13.08L121,161Z" transform="translate(0 -4.32)"/><path class="cls-6" d="M101.79,49.55c-.57-4.38-.9-7.95-.9-7.95H80.14a43.15,43.15,0,0,1,2,8.71,15.81,15.81,0,0,0,19.66-.76Z" transform="translate(0 -4.32)"/><ellipse class="cls-5" cx="91.03" cy="31.11" rx="16.3" ry="16.93"/><path class="cls-5" d="M81.47,64.91s-19.56,3.85-21.93,8.93-2.07,22.47-2.07,22.47.88,28.48-5.93,32L26.05,146.8S8,130.33,3.52,140s21.34,13.24,21.34,13.24l28.75-8.93,9.19-6.16a9.43,9.43,0,0,0,4.74-7.39l3.86-31.7,15.41-4.62h24.9L115,84.58s6.15,5.12,5.26,9.89,1.49,35.69,1.49,35.69,1.92,6.93,5.93,8.93l23.12,8.61s24.45,2.47,26.08-8.61-24,1.57-24,1.57l-18.39-14.79s-1.48-6.16-2.07-10.47S131,92.62,131,92.62s5.63-19.39-10.68-22.78l-21-6.77Z" transform="translate(0 -4.32)"/><path class="cls-6" d="M68.36,68.84l3,20.86s-3.13,9.7,0,19.24-3.86,45.11-3.86,45.11,36.61,12.17,59-1.85c0,0-16.45-36-9.48-48s.11-16.7.11-16.7l1.08-22.09-5-1.54-3,21.86s-20.45,14.78-35.57,1.85L71.38,63.84Z" transform="translate(0 -4.32)"/><path class="cls-7" d="M89.5,93.61A11.76,11.76,0,0,0,74,89.07,21.94,21.94,0,0,0,89.5,93.61Z" transform="translate(0 -4.32)"/><path class="cls-7" d="M97.9,91.32a11.75,11.75,0,0,1,15.53-4.54A22.08,22.08,0,0,1,97.9,91.32Z" transform="translate(0 -4.32)"/><path class="cls-6" d="M68.36,68.84l3,19.78s-3.13,9.7,0,19.24S67.54,153,67.54,153s36.61,12.17,59-1.84c0,0-16.45-36-9.48-48s.12-16.7.12-16.7l1.07-22.09-5-1.54-3,21.86S89.76,99.4,74.64,86.46l-3.26-23.7Z" transform="translate(0 -4.32)"/><path class="cls-8" d="M68.21,68.69,71.4,88.93s-3.13,9.69,0,19.24-3.86,45.1-3.86,45.1,36.61,12.17,59-1.85c0,0-16.45-36-9.48-48s.11-16.7.11-16.7l1.08-22.09-5-1.54-3,21.86S89.76,99.7,74.64,86.77l-3.26-23.7Z" transform="translate(0 -4.32)"/><path class="cls-5" d="M83.25,160.81,91,159.73s8.89-11.85,15.27-2.77c0,0,2.66,5.85,5.92,6.92a42,42,0,0,0,6.82,1.54l-13.19,3.85s-5.78,3.54-11.86,2.62a22.24,22.24,0,0,0-10.67.92Z" transform="translate(0 -4.32)"/><path class="cls-6" d="M74.73,110.55s13.93,2.16,16.3-1.69" transform="translate(0 -4.32)"/><path class="cls-6" d="M101.11,108.09s2.67,2.77,13.34.77" transform="translate(0 -4.32)"/><path class="cls-6" d="M74,65.15s10.23,1.54,12.15.61" transform="translate(0 -4.32)"/><path class="cls-6" d="M96.52,65.15s10.23,1.54,12.15.61" transform="translate(0 -4.32)"/><path class="cls-6" d="M84.36,159.66s2.82,13.79,0,14.28-6.81-2.28-6.81-2.58,1.78-9.09,1.78-9.09Z" transform="translate(0 -4.32)"/><path class="cls-3" d="M84.07,159.66s2.82,13.79,0,14.28-6.82-2.28-6.82-2.58S79,162.27,79,162.27Z" transform="translate(0 -4.32)"/><path class="cls-6" d="M70.31,63.13c-1.24,3-1.68,6.53-.36,9.49,1,2.26,3,4.09,3.35,6.55.48,3.08-1.72,6.22-.9,9.22a8.46,8.46,0,0,0,1.79,3c2.25,2.77,5.25,5.45,8.74,5.24.55-5.59-4.1-11-2.58-16.41.55-1.93,1.83-3.53,2.6-5.38,1.28-3,1.1-6.54.64-9.84-.68-4.78-2.39-10.65-7-12.89-2.1-1-5.08-1.1-5.82,1.69-.41,1.5.55,2.9.67,4.36A10,10,0,0,1,70.31,63.13Z" transform="translate(0 -4.32)"/><path class="cls-2" d="M70.31,62.67c-1.24,3-1.68,6.53-.36,9.49,1,2.26,3,4.09,3.35,6.55.48,3.08-1.72,6.21-.9,9.22a8.46,8.46,0,0,0,1.79,3c2.25,2.76,5.25,5.45,8.74,5.23.55-5.59-4.1-11-2.58-16.4.55-1.93,1.83-3.54,2.6-5.38,1.28-3,1.1-6.54.64-9.84-.68-4.78-2.39-10.65-7-12.89-2.1-1-5.08-1.1-5.82,1.69-.41,1.5.55,2.9.67,4.36A10,10,0,0,1,70.31,62.67Z" transform="translate(0 -4.32)"/><path class="cls-6" d="M71.47,27.13s21.64-3.08,22.23,1.53,19.72,12.17,19.72,12.17l-4.75-12.17L99.93,13.58s-16-1.22-16.75,0S74,18.81,74,18.81Z" transform="translate(0 -4.32)"/><path class="cls-2" d="M71.47,26.82s21.64-3.08,22.23,1.54,19.72,12.16,19.72,12.16l-4.75-12.16L99.93,13.27s-16-1.22-16.75,0S74,18.5,74,18.5Z" transform="translate(0 -4.32)"/><path class="cls-6" d="M109.14,59.71a11.19,11.19,0,0,1,2.17,4.51c.36,1.59.39,3.25.71,4.84.73,3.39,2.89,6.23,5.14,8.8a9.23,9.23,0,0,0,2.62,2.29,3.32,3.32,0,0,0,3.3,0A6.17,6.17,0,0,1,121.36,77a16.4,16.4,0,0,1-.6-5c.1-2.84.9-5.84-.24-8.43a10.28,10.28,0,0,0-3.13-3.65,14.08,14.08,0,0,0-8.77-3.48C106,56.16,108.29,58.67,109.14,59.71Z" transform="translate(0 -4.32)"/><path class="cls-2" d="M109.14,59.25a11.19,11.19,0,0,1,2.17,4.51c.36,1.59.39,3.25.71,4.84.73,3.38,2.89,6.23,5.14,8.79a9.42,9.42,0,0,0,2.62,2.3,3.32,3.32,0,0,0,3.3,0,6.17,6.17,0,0,1-1.72-3.12,16.5,16.5,0,0,1-.6-5c.1-2.84.9-5.83-.24-8.42a10.36,10.36,0,0,0-3.13-3.65,16.52,16.52,0,0,0-2.78-1.91,16.94,16.94,0,0,0-6-1.58C106,55.69,108.29,58.21,109.14,59.25Z" transform="translate(0 -4.32)"/></svg>