<svg id="Réteg_1" data-name="Réteg 1" xmlns="http://www.w3.org/2000/svg" xmlns:xlink="http://www.w3.org/1999/xlink" viewBox="0 0 131.09 178.35"><defs><style>.cls-1,.cls-5{fill:#6c63ff;}.cls-1,.cls-4{opacity:0.1;isolation:isolate;}.cls-2{fill:url(#Névtelen_színátmenet_2);}.cls-3{fill:#fbbebe;}.cls-6{fill:#3f3d56;}</style><linearGradient id="Névtelen_színátmenet_2" x1="182.55" y1="-70.42" x2="182.55" y2="97.86" gradientTransform="matrix(1, 0, 0, -1, -95.23, 107.2)" gradientUnits="userSpaceOnUse"><stop offset="0" stop-color="gray" stop-opacity="0.25"/><stop offset="0.54" stop-color="gray" stop-opacity="0.12"/><stop offset="1" stop-color="gray" stop-opacity="0.1"/></linearGradient></defs><title>motiv</title><ellipse class="cls-1" cx="62.01" cy="174" rx="62.01" ry="4.34"/><path class="cls-2" d="M122.38,151.18c.86-1.51,1.88-2.93,2.7-4.46s1.35-2.89,2-4.33c1.16-2.46,2.59-4.79,3.9-7.19a9.18,9.18,0,0,0,1.51-5.06c-.16-1.68-1.16-3.14-1.54-4.77-1.58-6.67-5.37-12.79-7.68-19.25-.59-1.63-1.17-3.28-1.91-4.86a51.32,51.32,0,0,0-5.4-8.48,24.06,24.06,0,0,0-2.39-2.93c-.72-.7-1.52-1.32-2.17-2.08-1.33-1.57-2-3.83-3.63-5l-.09.22c-1.2-3-5.22-5-7.55-7.5a44.7,44.7,0,0,1-3.73-4.83l-5.07-7.22a11.92,11.92,0,0,1-2.12-4c-.43-1.78,0-3.69-.46-5.48A6.82,6.82,0,0,0,87.23,51l.15,0c1-.26,2-.3,3-.53,2.09-.49,3.91-1.81,6-2.33a14.52,14.52,0,0,0,3.17-.85,2.57,2.57,0,0,0,1.22-2.75c-.67-3.51,1.21-7.08.89-10.64-.09-1-.34-1.95-.51-2.93a30.6,30.6,0,0,1-.17-6.9,14.7,14.7,0,0,1,2.32-2.84c1.28-1.21,2.8-2.24,3.69-3.76a7.21,7.21,0,0,0,.77-4.52,4.35,4.35,0,0,0-1.42-3A3.62,3.62,0,0,0,103,9.56a3.29,3.29,0,0,0-.44.16,3.76,3.76,0,0,0-2.94-.16,8.89,8.89,0,0,0-2.88,1.78,6.35,6.35,0,0,0-1.34,1.4,8.33,8.33,0,0,0-.92,2.87,27.42,27.42,0,0,1-1.92,5.55c-.15.31-.57.87-.9,1.41l-.61-.12c-.27,2.49-2.39,4.33-3.68,6.49-.63,1-1.07,2.19-1.63,3.27a32.67,32.67,0,0,1-2.16,3.41L81.28,39a48.61,48.61,0,0,1-3.13,4.16C77.11,43,76.06,43,75,43a26,26,0,0,0-5.21.45,13.4,13.4,0,0,1-.18-1.79V41.5c0-.15,0-.32,0-.51a10.31,10.31,0,0,0-.51-17.54,6,6,0,0,0,.11-.95v-.56a1.27,1.27,0,0,0,0-.28,3.45,3.45,0,0,0-.1-.56,1.72,1.72,0,0,0-.08-.28,2.94,2.94,0,0,0-.23-.51l0,0-.12-.18c0-.05,0,0,0-.07a.52.52,0,0,0-.1-.11l-.07-.08-.1-.09-.08-.07-.1-.09-.09-.07-.1-.07-.1-.07-.1-.06a.3.3,0,0,0-.11-.06l-.1-.06-.12-.06-.1,0-.13-.05-.1-.05L67,19l-.09,0-.15-.05-.09,0-.16-.05-.08,0-.18,0-.06,0L66,18.65H66l-.21-.05h0l-.3-.06c-1.25-.25-2.5-.47-3.76-.65a8.57,8.57,0,0,0-3.11-.06c-1.41.31-2.58,1.25-3.89,1.83a26.69,26.69,0,0,1-4.94,1.25,7.43,7.43,0,0,0-4.39,2.36A8.25,8.25,0,0,0,44,26.84c-2,10.55.16,21.36.56,32.09.16,4.17,0,8.63-2.44,12l7-.18c.33,0,.67,0,1,0s.68,0,1-.08a6.74,6.74,0,0,0,2.53-.75,4.08,4.08,0,0,0,1-.76,9.55,9.55,0,0,0,1.92-3.6c.16-.43.31-.87.45-1.31.06-.19.11-.37.16-.56l0-.09.08,0a17.18,17.18,0,0,0,.95,1.54A33.15,33.15,0,0,0,62.54,70c3.05,3,6.17,6,10,7.94a12.11,12.11,0,0,1,3.68,2.24c.48.52.9,1.17,1.58,1.35a8.1,8.1,0,0,1,1.31.18c.59.25.81,1,1.09,1.54s.9,1.17,1.49.91A2.91,2.91,0,0,0,82.79,87a2.25,2.25,0,0,1,.73.64,2.12,2.12,0,0,1,.14.75,3,3,0,0,0,1.08,1.82c-.55.9-.11,2.2-.1,3.33a12.08,12.08,0,0,1-.53,2.78,20.19,20.19,0,0,0,.23,8.26A8.92,8.92,0,0,0,86,108.86c.33.37.71.7,1,1.07a9.49,9.49,0,0,1,1.61,2.41,18.76,18.76,0,0,1,1.74,5.5,10,10,0,0,0,.83,2.78c.62,1.34.05,3,.61,4.35a13.28,13.28,0,0,1,.87,1.78c.21.93-.28,1.87-.42,2.82-.32,2.22,1.31,4.29,1.46,6.53a.56.56,0,0,1-.08.38c-.11.12-.3.12-.46.19s-.36.51-.45.82-.34.67-.66.58c-4.67,2.46-9.51,4.74-14.19,7.2l-2.13,1.12-11.41,6a.81.81,0,0,0-.46.73c0,.13,0,.28,0,.41-.8.19-1.56.43-2.11.53l-.67.13a.73.73,0,0,0,.1-.28.56.56,0,0,0-.5-.56,1.89,1.89,0,0,0-.82.1,12.35,12.35,0,0,1-2,.37,13.57,13.57,0,0,0-2.38.28,2.67,2.67,0,0,0-1.85,1.4,3.3,3.3,0,0,0-.21,1.32A20.72,20.72,0,0,0,54.1,162a.48.48,0,0,0,.21.33c.1,0,.22,0,.32,0a.43.43,0,0,1,.19.23,11.64,11.64,0,0,1,.71,3.43c.19,1.73.43,3.45.72,5.17a5.6,5.6,0,0,0,1,2.82,4.71,4.71,0,0,0,3,1.37,21.21,21.21,0,0,0,7-.64,2.1,2.1,0,0,0,1.19-.53,1.3,1.3,0,0,0,.28-.93c-.05-1.15-1.12-2-2.08-2.61l-1.32-.9a.55.55,0,0,1-.29-.63l.09-1.7h-.26a6,6,0,0,1,1.64-3.18c.62-.56,1.42-1,2.07-1.46a5.12,5.12,0,0,0,2.87,1A23.28,23.28,0,0,1,78,158.49a65.52,65.52,0,0,1,6-3.32c1.68-.82,3.39-1.58,5.12-2.3,2.45-1,4.94-1.92,7.43-2.8a30.29,30.29,0,0,0,4.88-2c4-2.27,6.79-6.79,6.26-11.32-.68-5.72.77-11.68.67-17.43a17,17,0,0,0-.61-5,2.2,2.2,0,0,1,.34.28c1,1,1.28,2.46,2.27,3.55.78.85,1.95,1.4,2.41,2.44.36.8.31,1.88,1,2.34.21.13.46.19.67.32a2.06,2.06,0,0,1,.62.66,7.34,7.34,0,0,1,1.69,3.64c0,.54,0,1.16.39,1.52.11.1.26.18.32.32s-.21.57-.27.89.35.75.62,1.12a1.73,1.73,0,0,1,0,2.07c-2.33,3-2.75,7-4.79,10.2-.71,1.1-1.49,2.14-2.17,3.26-2.1,3.42-3.16,7.36-4.19,11.23a6.06,6.06,0,0,0,1.75,1.92,9.51,9.51,0,0,1-2,3.55,9.73,9.73,0,0,0-.65.79,1.48,1.48,0,0,0-.63-.47,22.46,22.46,0,0,0-.57,4.9,3.47,3.47,0,0,0,1,3,3.78,3.78,0,0,0,1.16.47l2,.56a2.1,2.1,0,0,0,1.08.11,6.07,6.07,0,0,1,.67-.25,1.63,1.63,0,0,1,.76.1l1.69.48a10.88,10.88,0,0,1,1.66.58c.48.23.93.52,1.4.77a15.21,15.21,0,0,0,2.44,1l2.9,1a11,11,0,0,0,2.52.64c.6,0,1.21,0,1.8.1.44.08.88.24,1.33.28a3.59,3.59,0,0,0,2.11-.61,2,2,0,0,0,.61-.54,2.13,2.13,0,0,0-.36-2.19,8.71,8.71,0,0,0-3-3.08c-.51-.28-1.07-.49-1.6-.74-1.51-.73-2.65-2-4.08-2.78a1,1,0,0,0-1.23.08,8.18,8.18,0,0,1-3.13-2.74,6.18,6.18,0,0,1-.57-1.89c.67.16,1.34.28,2,.39A51,51,0,0,1,122.38,151.18ZM95.06,31.68c-.06.31-.12.63-.19.94-.57,2.63-1.38,5.58-3.24,7.54a7.09,7.09,0,0,1-2.1,1.36l-.21.11A44.37,44.37,0,0,1,95.06,31.68Z" transform="translate(-24.45 -0.83)"/><path class="cls-3" d="M97.81,16.07a8.29,8.29,0,0,1,.92-2.85,6.64,6.64,0,0,1,1.35-1.4A9,9,0,0,1,103,10.05a3.63,3.63,0,0,1,3.27.37,4.26,4.26,0,0,1,1.43,3,7.14,7.14,0,0,1-.77,4.48c-.88,1.52-2.41,2.53-3.69,3.74a14,14,0,0,0-2.41,3,8.75,8.75,0,0,1-1.1,1.58,2.13,2.13,0,0,1-1.75.69A3.16,3.16,0,0,1,96.52,26c-.52-.46-1.94-1.27-2-2s1.07-1.9,1.34-2.45A27.44,27.44,0,0,0,97.81,16.07Z" transform="translate(-24.45 -0.83)"/><path class="cls-4" d="M97.81,16.07a8.29,8.29,0,0,1,.92-2.85,6.64,6.64,0,0,1,1.35-1.4A9,9,0,0,1,103,10.05a3.63,3.63,0,0,1,3.27.37,4.26,4.26,0,0,1,1.43,3,7.14,7.14,0,0,1-.77,4.48c-.88,1.52-2.41,2.53-3.69,3.74a14,14,0,0,0-2.41,3,8.75,8.75,0,0,1-1.1,1.58,2.13,2.13,0,0,1-1.75.69A3.16,3.16,0,0,1,96.52,26c-.52-.46-1.94-1.27-2-2s1.07-1.9,1.34-2.45A27.44,27.44,0,0,0,97.81,16.07Z" transform="translate(-24.45 -0.83)"/><path class="cls-5" d="M68,44.08a25.67,25.67,0,0,1,7-.84c3.94,0,8,1,11.73-.2a20.58,20.58,0,0,0,2.82-1.2,7.33,7.33,0,0,0,2.1-1.35c1.86-2,2.66-4.88,3.24-7.49a48.49,48.49,0,0,0,.89-8,6.3,6.3,0,0,0,3.07.79,2.2,2.2,0,0,0,2.14-2,31.29,31.29,0,0,0,.14,7.43c.16,1,.42,1.92.51,2.9.31,3.54-1.57,7.08-.9,10.58a2.55,2.55,0,0,1-1.22,2.73,13.59,13.59,0,0,1-3.17.84c-2.08.52-3.9,1.83-6,2.32-1,.22-2,.28-3,.52-1.38.36-2.64,1.14-4,1.38-1,.19-2.14.06-3.2.15s-1.84.32-2.77.34a8,8,0,0,1-5.94-2.9A24.16,24.16,0,0,1,68,44.08Z" transform="translate(-24.45 -0.83)"/><path class="cls-4" d="M68,44.08a25.67,25.67,0,0,1,7-.84c3.94,0,8,1,11.73-.2a20.58,20.58,0,0,0,2.82-1.2,7.33,7.33,0,0,0,2.1-1.35c1.86-2,2.66-4.88,3.24-7.49a48.49,48.49,0,0,0,.89-8,6.3,6.3,0,0,0,3.07.79,2.2,2.2,0,0,0,2.14-2,31.29,31.29,0,0,0,.14,7.43c.16,1,.42,1.92.51,2.9.31,3.54-1.57,7.08-.9,10.58a2.55,2.55,0,0,1-1.22,2.73,13.59,13.59,0,0,1-3.17.84c-2.08.52-3.9,1.83-6,2.32-1,.22-2,.28-3,.52-1.38.36-2.64,1.14-4,1.38-1,.19-2.14.06-3.2.15s-1.84.32-2.77.34a8,8,0,0,1-5.94-2.9A24.16,24.16,0,0,1,68,44.08Z" transform="translate(-24.45 -0.83)"/><path class="cls-6" d="M124.74,11.32h.69a19.28,19.28,0,0,1-.67,38.56h-.69a19.28,19.28,0,0,1,.67-38.56m0-4.77h0A24.24,24.24,0,0,0,100.32,30.6a24.22,24.22,0,0,0,23.58,24l.86,0a24.23,24.23,0,0,0,24.41-24,24.22,24.22,0,0,0-23.58-24l-.85,0Z" transform="translate(-24.45 -0.83)"/><polygon class="cls-6" points="97.72 0 103.44 0.2 103.24 6.13 97.52 5.93 97.72 0"/><polygon class="cls-6" points="113.56 2.95 118.36 6.02 115.08 10.99 110.28 7.92 113.56 2.95"/><polygon class="cls-6" points="125.4 13.08 128 18.1 122.63 20.79 120.03 15.77 125.4 13.08"/><polygon class="cls-6" points="127.3 43.31 124.1 47.98 119.1 44.67 122.3 39.99 127.3 43.31"/><polygon class="cls-6" points="81.58 14.45 78.64 19.28 73.47 16.23 76.42 11.39 81.58 14.45"/><polygon class="cls-6" points="77.22 38.91 80.08 43.81 74.84 46.78 71.98 41.88 77.22 38.91"/><polygon class="cls-6" points="91.87 7.29 86.87 10.02 83.94 4.83 88.95 2.1 91.87 7.29"/><polygon class="cls-6" points="95.84 53.38 101.56 53.58 101.36 59.51 95.64 59.31 95.84 53.38"/><polygon class="cls-6" points="108.72 52.27 113.73 49.53 116.65 54.72 111.64 57.46 108.72 52.27"/><polygon class="cls-6" points="87.03 56.61 82.23 53.54 85.51 48.56 90.31 51.63 87.03 56.61"/><polygon class="cls-6" points="69.67 26.36 76.6 26.59 76.42 31.63 69.49 31.4 69.67 26.36"/><polygon class="cls-6" points="130.91 33.49 123.99 33.25 124.17 28.21 131.09 28.45 130.91 33.49"/><path class="cls-3" d="M61.69,153.6a5.92,5.92,0,0,0-2,.61,4.68,4.68,0,0,0-1.75,2.34,19.7,19.7,0,0,0-1.18,7.28,15.24,15.24,0,0,0,.76,5.9,3.68,3.68,0,0,0,1,1.54,3.6,3.6,0,0,0,1.38.66,3.81,3.81,0,0,0,3.22-.39,5,5,0,0,0,1.43-3.31,7.71,7.71,0,0,1,1.92-4.51c.91-.84,2.23-1.26,2.89-2.3.8-1.24.38-2.85-.13-4.23-.44-1.2-1.09-3.62-2.35-4.23S63,153.36,61.69,153.6Z" transform="translate(-24.45 -0.83)"/><path class="cls-3" d="M108.47,159.47a9.23,9.23,0,0,1-2,3.61c-.57.64-1.27,1.42-1,2.21a1.92,1.92,0,0,0,.53.7c4.17,4,10,6,15.79,6.69a.71.71,0,0,0,.29,0c.17-.08.21-.28.23-.47a6,6,0,0,0,0-1.79,5.35,5.35,0,0,0-2.73-3.14,8.53,8.53,0,0,1-3.22-2.77c-.85-1.56-.48-3.59-1.49-5a5.42,5.42,0,0,0-3.76-1.92c-.49-.07-1.55-.61-2-.36S108.62,159,108.47,159.47Z" transform="translate(-24.45 -0.83)"/><path class="cls-6" d="M61.12,153.45a.56.56,0,0,0-.5-.56,2,2,0,0,0-.83.1,11.23,11.23,0,0,1-2,.36,14.71,14.71,0,0,0-2.39.28,2.7,2.7,0,0,0-1.85,1.4,3.48,3.48,0,0,0-.21,1.32,20.41,20.41,0,0,0,.62,5.1.49.49,0,0,0,.21.33c.1,0,.22,0,.32,0a.39.39,0,0,1,.19.23,11.16,11.16,0,0,1,.72,3.41q.29,2.56.72,5.13a5.61,5.61,0,0,0,1,2.8,4.74,4.74,0,0,0,3,1.35,21.24,21.24,0,0,0,7-.63,2.11,2.11,0,0,0,1.19-.52,1.32,1.32,0,0,0,.28-.93c-.05-1.15-1.12-2-2.09-2.59l-1.33-.88a.56.56,0,0,1-.3-.63l.09-1.68a4.91,4.91,0,0,0-4.27,2.61c-.18.36-.36.78-.74.92a1,1,0,0,1-1.16-.69,3,3,0,0,1,0-1.48c.78-4.11.6-8.34,1.07-12.5a2.83,2.83,0,0,1,.43-1.32C60.65,154.11,61.08,153.83,61.12,153.45Z" transform="translate(-24.45 -0.83)"/><path class="cls-6" d="M119.21,169.4c.2.32.5.56.68.89a.75.75,0,0,1-.14,1,1,1,0,0,1-.62.06,21,21,0,0,1-11.24-5,7.52,7.52,0,0,1-1.38-1.49c-.36-.56-.67-1.21-1.3-1.44a21.54,21.54,0,0,0-.57,4.87,3.42,3.42,0,0,0,1,2.93,3.78,3.78,0,0,0,1.16.47l2,.54a2.09,2.09,0,0,0,1.08.11c.23-.06.43-.21.67-.25a1.63,1.63,0,0,1,.76.1l1.69.48a11.3,11.3,0,0,1,1.67.56c.48.23.92.52,1.39.77a17.88,17.88,0,0,0,2.45,1l3,1a10.56,10.56,0,0,0,2.53.64c.6,0,1.2,0,1.8.1.44.08.88.24,1.34.28a3.56,3.56,0,0,0,2.1-.61,2,2,0,0,0,.61-.54c.43-.65.06-1.51-.36-2.17a8.46,8.46,0,0,0-3-3.05c-.51-.28-1.07-.49-1.6-.74-1.52-.73-2.66-1.93-4.09-2.76S118.58,168.37,119.21,169.4Z" transform="translate(-24.45 -0.83)"/><path class="cls-3" d="M77.51,51.63a12.43,12.43,0,0,1-5.26,2,21,21,0,0,1-3,.15,76.43,76.43,0,0,1-12.36-1c1.63-1.77,3.27-3.64,3.89-6A9.77,9.77,0,0,0,61,43.09a28,28,0,0,0-1.15-4.7,33.69,33.69,0,0,0,5.22-.13c1-.1,3.41-1,4.27-.32s.19,2.84.18,3.86v.11a12.07,12.07,0,0,0,1,4.5A8.68,8.68,0,0,0,77.51,51.63Z" transform="translate(-24.45 -0.83)"/><path class="cls-4" d="M69.52,41.79A10.54,10.54,0,0,1,61,43.07a27.24,27.24,0,0,0-1.16-4.69,33.82,33.82,0,0,0,5.23-.14c1-.09,3.41-1,4.26-.31S69.54,40.77,69.52,41.79Z" transform="translate(-24.45 -0.83)"/><ellipse class="cls-3" cx="39.37" cy="31.9" rx="10.41" ry="10.26"/><path class="cls-5" d="M108,84.62a4.73,4.73,0,0,1-2.35,4.11,9.15,9.15,0,0,1-2.56.89,51,51,0,0,1-14.52,1.76,8.09,8.09,0,0,1-3.09-.63,3.26,3.26,0,0,1-1.9-2.35,2.38,2.38,0,0,0-.15-.74A2.2,2.2,0,0,0,82.7,87a2.87,2.87,0,0,1-1.1-2.89c-.6.26-1.22-.33-1.5-.91S79.61,81.94,79,81.7a9.39,9.39,0,0,0-1.31-.18c-.68-.18-1.1-.84-1.58-1.34A12.47,12.47,0,0,0,72.44,78c-3.83-1.9-7-4.92-10-7.88a32.93,32.93,0,0,1-4.31-4.76,17.58,17.58,0,0,1-.95-1.53,43.44,43.44,0,0,1-2.4-5.41,6.13,6.13,0,0,1-.62-3.09,1.4,1.4,0,0,1,.06-.28,5.93,5.93,0,0,1,.94-1.88,8,8,0,0,1,4.27-3.45c1.82-.47,3.64.1,5.48.48a13.19,13.19,0,0,0,1.87.28,17.64,17.64,0,0,0,5.79-.89L74.63,49c1-.28,1.55-1.52,2.6-1.73a3.68,3.68,0,0,1,1.4.07,19.65,19.65,0,0,1,6.13,2,10.88,10.88,0,0,1,1.2.8,7.47,7.47,0,0,1,2.77,4c.42,1.78,0,3.67.45,5.45a12,12,0,0,0,2.13,4l5.08,7.16a44.17,44.17,0,0,0,3.74,4.8C102.85,78.43,107.92,80.64,108,84.62Z" transform="translate(-24.45 -0.83)"/><path class="cls-3" d="M94.42,16.07a8.28,8.28,0,0,1,.91-2.85,6.64,6.64,0,0,1,1.35-1.4,9,9,0,0,1,2.88-1.77,3.62,3.62,0,0,1,3.27.37,4.27,4.27,0,0,1,1.44,3,7.21,7.21,0,0,1-.77,4.48c-.88,1.52-2.42,2.53-3.7,3.74a14.87,14.87,0,0,0-2.41,3,7.84,7.84,0,0,1-1.1,1.58,2.11,2.11,0,0,1-1.74.69A3.06,3.06,0,0,1,93.13,26c-.53-.46-1.95-1.27-2-2s1.07-1.9,1.34-2.45A27.44,27.44,0,0,0,94.42,16.07Z" transform="translate(-24.45 -0.83)"/><path class="cls-6" d="M131,134.87c-1.3,2.38-2.74,4.69-3.9,7.14-.68,1.43-1.27,2.91-2,4.3s-1.84,2.93-2.7,4.43a50.66,50.66,0,0,0-4.5,12.26,25,25,0,0,1-8.86-3.08,4.79,4.79,0,0,1-.53-.34,6.15,6.15,0,0,1-1.79-1.94c1-3.85,2.09-7.76,4.19-11.16.69-1.12,1.47-2.14,2.18-3.23,2-3.17,2.47-7.16,4.8-10.13a1.71,1.71,0,0,0,0-2.06c-.27-.35-.7-.67-.62-1.1s.39-.59.26-.88-.2-.22-.32-.32c-.39-.36-.34-1-.38-1.51a7.23,7.23,0,0,0-1.7-3.61,2.36,2.36,0,0,0-.63-.67c-.21-.12-.46-.18-.67-.31-.74-.46-.69-1.53-1-2.32-.46-1-1.64-1.58-2.41-2.43-1-1.07-1.23-2.58-2.27-3.52a2.2,2.2,0,0,0-.34-.28,17,17,0,0,1,.6,4.94c.1,5.71-1.35,11.62-.67,17.3.54,4.5-2.27,9-6.27,11.25a30.2,30.2,0,0,1-4.88,2c-2.5.88-5,1.78-7.45,2.78q-2.59,1.07-5.12,2.29a64.45,64.45,0,0,0-6,3.3,23.32,23.32,0,0,0-6.52,5.29A5.92,5.92,0,0,1,67.15,161a16.12,16.12,0,0,1-2.3-4.31,11.86,11.86,0,0,1-1.1-4.05.81.81,0,0,1,.5-.7l11.42-6,2.14-1.12c4.68-2.44,9.53-4.7,14.2-7.15.32.09.57-.26.67-.56s.16-.68.45-.82.34-.07.45-.19a.49.49,0,0,0,.08-.37c-.15-2.24-1.78-4.28-1.45-6.49.14-.94.63-1.87.42-2.8a12.09,12.09,0,0,0-.87-1.77c-.57-1.36,0-3-.62-4.33a9.45,9.45,0,0,1-.82-2.76,18.84,18.84,0,0,0-1.75-5.46,10.19,10.19,0,0,0-1.61-2.4c-.34-.36-.73-.68-1.06-1.06a8.81,8.81,0,0,1-1.64-4.21,19.91,19.91,0,0,1-.22-8.2,12,12,0,0,0,.53-2.76c0-1.24-.57-2.69.3-3.59a3,3,0,0,1,1.28-.65,39.3,39.3,0,0,1,6.2-1.12l9.54-1.23a8.83,8.83,0,0,0,3.18-.81,6.37,6.37,0,0,0,2.68-3.37c1.67,1.21,2.3,3.45,3.63,5,.66.76,1.46,1.37,2.17,2.07a23.68,23.68,0,0,1,2.4,2.9,51.32,51.32,0,0,1,5.4,8.43c.74,1.57,1.32,3.21,1.91,4.83,2.33,6.41,6.13,12.5,7.7,19.12.39,1.62,1.39,3.08,1.55,4.74A8.94,8.94,0,0,1,131,134.87Z" transform="translate(-24.45 -0.83)"/><path class="cls-4" d="M81,81.64A2.84,2.84,0,0,0,80.68,83c.21-1,1.66-1.61,1.75-2.64,0-.47,0-.45-.34-.2C81.64,80.58,81.44,81.24,81,81.64Z" transform="translate(-24.45 -0.83)"/><path class="cls-4" d="M85.44,84.79a2.24,2.24,0,0,0-.66,1,2.38,2.38,0,0,0-.13,1.68c.21-.1.28-.36.35-.58a3.75,3.75,0,0,1,.45-1c.17-.28,1-.9,1-1.19C86.4,84.21,85.65,84.63,85.44,84.79Z" transform="translate(-24.45 -0.83)"/><path class="cls-4" d="M86,50.08a10.69,10.69,0,0,1-2.2,1.44c-2.06,1-4.34,1.57-6.42,2.57a33.77,33.77,0,0,0-3,1.71l-6.17,3.86a6.76,6.76,0,0,0-1.36,1c-.74.78-.74,2.15-1.42,3a4.24,4.24,0,0,1-3,1.36,9.76,9.76,0,0,1-3.34-.56,18.7,18.7,0,0,1-1.9-.68,8.92,8.92,0,0,1-1.83-1,5.13,5.13,0,0,1-2.16-3.36,6.55,6.55,0,0,1,.37-2.74A9.9,9.9,0,0,1,54.2,55a5.88,5.88,0,0,1,.52-.87c1.42-2,3.92-2.91,6.33-3.37,1.27-.24,2.56-.39,3.84-.6a14.8,14.8,0,0,0,1.87.28,17.39,17.39,0,0,0,5.79-.9L74.62,49c1-.28,1.55-1.51,2.59-1.73a3.93,3.93,0,0,1,1.41.07,19.5,19.5,0,0,1,6.13,2A10.88,10.88,0,0,1,86,50.08Z" transform="translate(-24.45 -0.83)"/><path class="cls-5" d="M91,22.86c-.26,2.48-2.38,4.3-3.69,6.45-.63,1-1.07,2.18-1.64,3.25A31.38,31.38,0,0,1,83.49,36l-2.31,3.31a34.13,34.13,0,0,1-4.47,5.53c-3,.51-5.57,2.73-8.45,3.8-2.29.86-4.8,1-7.21,1.44s-4.91,1.41-6.33,3.37a8.42,8.42,0,0,0-1.18,2.52,6.4,6.4,0,0,0-.37,2.74A5.16,5.16,0,0,0,55.32,62a12.1,12.1,0,0,0,3.74,1.71,9.72,9.72,0,0,0,3.34.56,4,4,0,0,0,3-1.36c.7-.87.67-2.2,1.42-3a6.45,6.45,0,0,1,1.36-1l6.17-3.85a31.34,31.34,0,0,1,3-1.7c2.08-1,4.36-1.54,6.42-2.57s4-2.73,4.4-5C89.41,39,94.24,33.15,98.39,27.46c-.14,0-.1-.34-.15-.46a5.9,5.9,0,0,0-3-3A18,18,0,0,0,91,22.86Z" transform="translate(-24.45 -0.83)"/><path class="cls-6" d="M69.16,22.91a3.7,3.7,0,0,0-.43-2.16c-.68-1.12-2.12-1.52-3.41-1.78s-2.51-.47-3.77-.65a8.56,8.56,0,0,0-3.11-.05c-1.42.31-2.58,1.23-3.9,1.81a27.27,27.27,0,0,1-4.94,1.24,7.55,7.55,0,0,0-4.4,2.35,8,8,0,0,0-1.34,3.55c-2,10.48.15,21.23.55,31.87.16,4.15,0,8.58-2.44,12l7-.18c1.8,0,3.72-.14,5.12-1.23a8.34,8.34,0,0,0,2.36-4,12,12,0,0,0,.89-3.55c.12-2.5-1.33-5-.85-7.42a8.25,8.25,0,0,1,3.16-4.53,27.43,27.43,0,0,0,4.24-3.72c2.1-2.62,2.5-6.19,2.24-9.51A36.87,36.87,0,0,1,65.79,31a7.42,7.42,0,0,1,1.59-4.15A5.74,5.74,0,0,0,69.16,22.91Z" transform="translate(-24.45 -0.83)"/><path class="cls-4" d="M68.73,20.75c-.67-1.1-2.07-1.5-3.35-1.76A3.3,3.3,0,0,1,67,20.27a3.73,3.73,0,0,1,.43,2.17,5.71,5.71,0,0,1-1.8,4,7.41,7.41,0,0,0-1.58,4.16,34.59,34.59,0,0,0,.34,5.92c.26,3.32-.14,6.9-2.24,9.51A27.9,27.9,0,0,1,58,49.72a8.27,8.27,0,0,0-3.17,4.53c-.47,2.46,1,4.92.86,7.42a12.2,12.2,0,0,1-.9,3.55,8.3,8.3,0,0,1-2.36,4c-1.42,1.09-3.33,1.19-5.12,1.23l-4.95.13c-.12.18-.23.36-.35.53l7-.18c1.79,0,3.72-.14,5.12-1.23a8.42,8.42,0,0,0,2.36-4,12.26,12.26,0,0,0,.89-3.55c.11-2.5-1.33-5-.85-7.42a8.2,8.2,0,0,1,3.16-4.53,27.43,27.43,0,0,0,4.24-3.72c2.1-2.62,2.5-6.19,2.24-9.51A34.71,34.71,0,0,1,65.78,31a7.41,7.41,0,0,1,1.58-4.15,5.68,5.68,0,0,0,1.8-4A3.7,3.7,0,0,0,68.73,20.75Z" transform="translate(-24.45 -0.83)"/><path class="cls-4" d="M121.33,128.73,108.48,159.6a6.37,6.37,0,0,1-1.79-1.94c1-3.85,2.09-7.76,4.19-11.16.69-1.12,1.47-2.15,2.18-3.24,2-3.16,2.47-7.16,4.8-10.13a1.71,1.71,0,0,0,0-2.06c-.27-.34-.7-.67-.62-1.1s.39-.59.26-.88-.2-.21-.32-.32c-.39-.36-.34-1-.38-1.5a7.3,7.3,0,0,0-1.7-3.62,2.33,2.33,0,0,0-.63-.66c-.21-.13-.46-.18-.67-.31-.74-.46-.69-1.53-1-2.33-.46-1-1.64-1.57-2.41-2.42-1-1.08-1.23-2.59-2.27-3.53l-.09-.22,1-6Z" transform="translate(-24.45 -0.83)"/></svg>