<svg id="Réteg_1" data-name="Réteg 1" xmlns="http://www.w3.org/2000/svg" xmlns:xlink="http://www.w3.org/1999/xlink" viewBox="0 0 180 170.17"><defs><style>.cls-1{fill:#bcbec9;}.cls-2{fill:#565661;}.cls-3{fill:#efeff0;}.cls-4{fill:url(#Névtelen_színátmenet);}.cls-5{fill:#a26565;}.cls-11,.cls-6{opacity:0.1;}.cls-6,.cls-8{isolation:isolate;}.cls-7{fill:#454b69;}.cls-8{opacity:0.05;}.cls-9{fill:#fff;}.cls-10{fill:#6c63ff;}.cls-12{fill:#a1616a;}.cls-13{fill:#464353;}</style><linearGradient id="Névtelen_színátmenet" x1="86.38" y1="176.96" x2="87.05" y2="176.96" gradientTransform="translate(-35.5 -78.83)" gradientUnits="userSpaceOnUse"><stop offset="0" stop-color="gray" stop-opacity="0.25"/><stop offset="0.54" stop-color="gray" stop-opacity="0.12"/><stop offset="1" stop-color="gray" stop-opacity="0.1"/></linearGradient></defs><title>pair</title><polygon class="cls-1" points="53.03 75.97 53.6 129.02 45.77 149.86 45.16 75.97 53.03 75.97"/><rect class="cls-2" x="129.09" y="59.97" width="32.11" height="14.6"/><rect class="cls-2" x="129.09" y="75.97" width="32.11" height="31"/><polygon class="cls-3" points="42.99 149.86 45.77 149.86 45 56.98 40.8 56.98 42.99 149.86"/><path class="cls-4" d="M51.54,98.42,51,98.33v-.5c.23.19.45.39.66.59Z" transform="translate(0 -9.83)"/><path class="cls-5" d="M39.05,145.17a10.74,10.74,0,0,1,1.13-.22,13,13,0,0,1,7.65,1.15,14,14,0,0,0,0,5.61,24.91,24.91,0,0,1,1.23,3.75A2.11,2.11,0,0,1,50.71,157a3.56,3.56,0,0,1,.16,1.07,6.15,6.15,0,0,1-.16,1.35,1.31,1.31,0,0,1-1.38,1.21c-2.22.26-4.4-.66-6.47-1.56l-4-1.77a11.85,11.85,0,0,1-1.39-.67,7.65,7.65,0,0,1-2.24-1.92,1,1,0,0,1-.27-.51c-.08-.54.52-.85.89-1.21a2.06,2.06,0,0,0,.29-.37,11.18,11.18,0,0,0,.76-2.53c.63-2,2.58-3.26,3.27-5.19a1.31,1.31,0,0,1,.1-.32" transform="translate(0 -9.83)"/><path class="cls-6" d="M50.9,158.1a6.15,6.15,0,0,1-.16,1.35,1.31,1.31,0,0,1-1.38,1.21c-2.22.26-4.4-.66-6.47-1.56l-4-1.77a11.85,11.85,0,0,1-1.39-.67,7.65,7.65,0,0,1-2.24-1.92,1,1,0,0,1-.27-.51c-.08-.54.52-.85.89-1.21a2.06,2.06,0,0,0,.29-.37,32,32,0,0,1,3.29,1.28A9.42,9.42,0,0,1,41.89,155a19.42,19.42,0,0,1,2.72,2.72,4.41,4.41,0,0,0,3.3,1.63,5.33,5.33,0,0,0,1.88-.69Z" transform="translate(0 -9.83)"/><path class="cls-7" d="M46.19,115.1a1.44,1.44,0,0,1-.49,1.52c-.37.24-.86.21-1.23.48a2.57,2.57,0,0,0-.61,1.6,22.66,22.66,0,0,1-2,5.71,10.88,10.88,0,0,0-1.21,5.9c.21,1.37.85,2.83.25,4.06-.15.3-.37.57-.53.87-.82,1.44-.36,3.26-.39,4.94a1.12,1.12,0,0,1-.11.54,1.59,1.59,0,0,1-.45.37,2.51,2.51,0,0,0-1,1.94,7.84,7.84,0,0,0,.25,2.26,1.4,1.4,0,0,0,.36.79,1.27,1.27,0,0,0,.77.23,16.45,16.45,0,0,1,5.25,1.34,17.06,17.06,0,0,0,3.3,1.31.81.81,0,0,0,.68-.07,1,1,0,0,0,.29-.53,12.56,12.56,0,0,0,.74-4.74c-.06-.69-.24-1.36-.28-2.06-.2-2.72,1.55-5.18,2.1-7.87.25-1.21.25-2.46.43-3.69.48-3.35,2.24-6.35,2.91-9.67a10.28,10.28,0,0,1,.44-1.82c.5-1.28,1.66-2.32,1.69-3.71a1.47,1.47,0,0,0-.22-.87,1.88,1.88,0,0,0-1-.6,33.55,33.55,0,0,0-4.76-1,8.44,8.44,0,0,0-2.24-.17,6.35,6.35,0,0,0-2.73,1C45.24,113.87,46,114,46.19,115.1Z" transform="translate(0 -9.83)"/><path class="cls-8" d="M46.19,115.1a1.44,1.44,0,0,1-.49,1.52c-.37.24-.86.21-1.23.48a2.57,2.57,0,0,0-.61,1.6,22.66,22.66,0,0,1-2,5.71,10.88,10.88,0,0,0-1.21,5.9c.21,1.37.85,2.83.25,4.06-.15.3-.37.57-.53.87-.82,1.44-.36,3.26-.39,4.94a1.12,1.12,0,0,1-.11.54,1.59,1.59,0,0,1-.45.37,2.51,2.51,0,0,0-1,1.94,7.84,7.84,0,0,0,.25,2.26,1.4,1.4,0,0,0,.36.79,1.27,1.27,0,0,0,.77.23,16.45,16.45,0,0,1,5.25,1.34,17.06,17.06,0,0,0,3.3,1.31.81.81,0,0,0,.68-.07,1,1,0,0,0,.29-.53,12.56,12.56,0,0,0,.74-4.74c-.06-.69-.24-1.36-.28-2.06-.2-2.72,1.55-5.18,2.1-7.87.25-1.21.25-2.46.43-3.69.48-3.35,2.24-6.35,2.91-9.67a10.28,10.28,0,0,1,.44-1.82c.5-1.28,1.66-2.32,1.69-3.71a1.47,1.47,0,0,0-.22-.87,1.88,1.88,0,0,0-1-.6,33.55,33.55,0,0,0-4.76-1,8.44,8.44,0,0,0-2.24-.17,6.35,6.35,0,0,0-2.73,1C45.24,113.87,46,114,46.19,115.1Z" transform="translate(0 -9.83)"/><polygon class="cls-2" points="40.57 150.89 38.12 150.89 36.51 116.18 36.4 114.21 38.48 113.44 38.62 115.53 40.57 150.89"/><polygon class="cls-6" points="38.62 115.53 36.51 116.18 36.4 114.21 38.48 113.44 38.62 115.53"/><polygon class="cls-2" points="71.33 158.23 67.28 158.75 48.66 114.21 43.63 113.82 34.81 116.53 33.09 169.56 29.05 169.56 30.64 114.59 20.96 114.86 3.68 160.17 0 160.17 18.17 107.21 18.88 105.17 45.96 104.19 52.71 108.18 52.8 108.41 71.33 158.23"/><path class="cls-6" d="M52.8,118.23C47,120.1,40.93,122.1,40.93,122.1s-5.51,2-7.84,0a3.32,3.32,0,0,0-1-.57,4.7,4.7,0,0,0,1,.57L18.17,117l.7-2L46,114l6.75,4Z" transform="translate(0 -9.83)"/><path class="cls-9" d="M25.25,109.44l11-2.58S62.6,112,64.56,114.09c0,0-21.08,4.52-23.41,6.06S25,123.39,25.25,109.44Z" transform="translate(0 -9.83)"/><path class="cls-10" d="M20.46,80.41c-.86,2.88-3.21,5.47-6.08,5.6a1,1,0,0,1-.6-.12,1.05,1.05,0,0,1-.23-1.21A5.41,5.41,0,0,0,14,83.44a1.22,1.22,0,0,0,0-.27c-.07-.36-.35-.68-.68-.6A1.24,1.24,0,0,0,13.56,81a5.62,5.62,0,0,1-.35-.5c-.24-.51.14-1.09.29-1.64.32-1.21-.49-2.42-.56-3.69a21.93,21.93,0,0,1,.62-3.31c.22-1.82-.64-3.56-.74-5.37a12.16,12.16,0,0,1,.56-3.74A14,14,0,0,0,14,59.38c0-.83-.13-1.64-.17-2.47a4.46,4.46,0,0,1,.38-2.19,1.67,1.67,0,0,1,.94-.85c.94-.33,1.56.18,1.7,1.13.23,1.6.1,3.23.4,4.84a23.93,23.93,0,0,0,1.26,4.39C19,65.5,19.65,66.74,20,68.06a23.55,23.55,0,0,1,.63,3.33C21.07,74.42,21.38,77.53,20.46,80.41Z" transform="translate(0 -9.83)"/><path class="cls-5" d="M86,153.7a4.46,4.46,0,0,1-3.14,2c-1.25.16-2.55-.17-3.76.19a1.16,1.16,0,0,0-.86.7,4.57,4.57,0,0,0,0,.74c-.15.81-1.15,1-1.94,1H73a2.6,2.6,0,0,1-1.9-.53,1.54,1.54,0,0,1,0-2,1.16,1.16,0,0,1,.36-.3,1.21,1.21,0,0,1-.78-1,3.77,3.77,0,0,1,.06-1.34c0-1.26.29-3.38,1.14-4.37a9.33,9.33,0,0,1,4.4-3.16,3.32,3.32,0,0,1,3,.89c.74.73,1.28,1.87,2.3,2a5.41,5.41,0,0,0,1.64-.31,3,3,0,0,1,3.11,1.73,3.46,3.46,0,0,1,.28,1A4,4,0,0,1,86,153.7Z" transform="translate(0 -9.83)"/><path class="cls-6" d="M86,153.7a4.46,4.46,0,0,1-3.14,2c-1.25.16-2.55-.17-3.76.19a1.16,1.16,0,0,0-.86.7,4.57,4.57,0,0,0,0,.74c-.15.81-1.15,1-1.94,1H73a2.6,2.6,0,0,1-1.9-.53,1.54,1.54,0,0,1,0-2,32.37,32.37,0,0,0,5.56-.4c.76-.16,1.5-.38,2.27-.49,1.65-.25,3.42,0,4.94-.77a5.85,5.85,0,0,0,2.71-3.22A4.19,4.19,0,0,1,86,153.7Z" transform="translate(0 -9.83)"/><path class="cls-7" d="M77.46,148.91a7,7,0,0,1-4,1.75,4,4,0,0,1-3.69-1.93c-1-1.95-.12-4.66-1.39-6.44-.4-.56-1-1-1.39-1.5a1.76,1.76,0,0,1-.29-1.93c-.45.18-.93-.28-1.06-.77s0-1-.13-1.52c-.21-1.31-1.44-2.16-2-3.33a10.42,10.42,0,0,1-.58-4.07A16,16,0,0,0,59.54,120a2,2,0,0,0-1.5-1,3,3,0,0,0-1.5-2.73,7.19,7.19,0,0,0-3-.85c-10.61-1.1-21.67,3-31.8-.44a14.17,14.17,0,0,1-7.28-5.11A9.44,9.44,0,0,1,12.94,103h0c.4-2.15,1.48-2.68,3.26-3.66a38.53,38.53,0,0,1,6.44-2.84A24.85,24.85,0,0,1,36,95.65c2.08.49,4.08,1.3,6.16,1.77.82.19,1.65.33,2.48.44,1.29.17,2.59.28,3.89.44a55.7,55.7,0,0,1,12.2,2.89A15.8,15.8,0,0,1,65,103.27a9.94,9.94,0,0,1,3.74,6.5c.12.89.13,1.82.31,2.68a15.89,15.89,0,0,0,.69,2.12,146.91,146.91,0,0,1,6,19.68,4.42,4.42,0,0,0,.48,1.42c.36.63,1,1.05,1.37,1.68.86,1.47,0,3.54.79,5.07.27.54.71,1,1,1.49C80.17,145.62,78.9,147.71,77.46,148.91Z" transform="translate(0 -9.83)"/><path class="cls-6" d="M62.74,114.1a4.86,4.86,0,0,0,1-1.21,2.34,2.34,0,0,0,.32-1.57,4.63,4.63,0,0,1-1.12,3.85,3.66,3.66,0,0,1-3.13,1.28C60,115.58,62.07,114.72,62.74,114.1Z" transform="translate(0 -9.83)"/><path class="cls-6" d="M44.78,99a2,2,0,0,1-1.27,1.39,5.31,5.31,0,0,1-1.9.23H41c-7.54-.18-15.17-1.94-22.53-.26a14.88,14.88,0,0,0-2.61.81,11.63,11.63,0,0,0-3,1.82h0c.4-2.15,1.48-2.68,3.26-3.66a38.3,38.3,0,0,1,6.43-2.81A24.85,24.85,0,0,1,36,95.66c2.08.49,4.08,1.3,6.16,1.77.82.19,1.65.33,2.48.44A2.2,2.2,0,0,1,44.78,99Z" transform="translate(0 -9.83)"/><path class="cls-5" d="M44.78,98.6A2,2,0,0,1,43.51,100a5.31,5.31,0,0,1-1.9.23H41C33.5,100,25.87,98.28,18.51,100a16,16,0,0,0-2.61.8,12,12,0,0,0-3.12,1.94c-.22-.64-.44-1.28-.65-1.92s.57-.93.73-1.61a4,4,0,0,0-.16-1.49,2.23,2.23,0,0,1,0-.36A2.36,2.36,0,0,1,13.82,95a31.67,31.67,0,0,1,8.48-3.9,20,20,0,0,1,4.71-1,22.25,22.25,0,0,1,6.74.86,27.72,27.72,0,0,1,7.79,3.13,7.42,7.42,0,0,1,2.92,3A2.32,2.32,0,0,1,44.78,98.6Z" transform="translate(0 -9.83)"/><path class="cls-6" d="M20.46,80.41c-.86,2.88-3.21,5.47-6.08,5.6a1,1,0,0,1-.6-.12,1.05,1.05,0,0,1-.23-1.21A5.41,5.41,0,0,0,14,83.44a1.22,1.22,0,0,0,0-.27A21.19,21.19,0,0,0,17.58,76a4.23,4.23,0,0,0,.11-1.42A12.26,12.26,0,0,0,17.2,73a8.7,8.7,0,0,1,0-2.88,27.87,27.87,0,0,0-2-12.44,11.93,11.93,0,0,1-1-2.91,1.71,1.71,0,0,1,.94-.85c1-.33,1.56.18,1.7,1.13.23,1.6.1,3.23.4,4.84a23.93,23.93,0,0,0,1.26,4.39c.51,1.28,1.13,2.51,1.52,3.83a22.21,22.21,0,0,1,.63,3.33C21.07,74.42,21.38,77.53,20.46,80.41Z" transform="translate(0 -9.83)"/><path class="cls-6" d="M44.78,98.6A2,2,0,0,1,43.51,100a5.31,5.31,0,0,1-1.9.23H41A12,12,0,0,0,32.7,98.1a13.3,13.3,0,0,1-2.81.25c-1.89-.18-3.43-1.61-5.11-2.53a10.33,10.33,0,0,0-11.91,1.7l-.17.15v-.36A2.36,2.36,0,0,1,13.87,95a31.4,31.4,0,0,1,8.44-3.89,20,20,0,0,1,4.71-1,21.88,21.88,0,0,1,6.73.87,27.37,27.37,0,0,1,7.8,3.13,7.63,7.63,0,0,1,2.91,3A2.32,2.32,0,0,1,44.78,98.6Z" transform="translate(0 -9.83)"/><path class="cls-10" d="M51.23,65.43v.11c-.64,1.76-1.83,3.24-2.59,5a22.35,22.35,0,0,0-1.4,7A37.18,37.18,0,0,0,47,83.69c.37,5,2.71,9.84,3.34,14.79a17.42,17.42,0,0,1,.11,3.46,3.49,3.49,0,0,1-.63,2,1.29,1.29,0,0,1-1.8.27l0,0,.67-1.33c-1.32-1.07-3.29-.3-4.83-1a8,8,0,0,1-1.78-1.34,12,12,0,0,0-9.31-2.86,12.62,12.62,0,0,1-2.81.26c-1.9-.19-3.43-1.62-5.12-2.54A10.33,10.33,0,0,0,12.86,97.1c-.4.39-.94.85-1.43.61a1.33,1.33,0,0,1-.45-.52c-1.88-3.39-.52-7.76,1.48-11.09s4.67-6.35,5.5-10.17a4,4,0,0,0,.11-1.41A12.4,12.4,0,0,0,17.58,73a8.79,8.79,0,0,1,0-2.85,27.87,27.87,0,0,0-2-12.44,9.33,9.33,0,0,1-1-3.5c0-1.93,1.31-3.53,2.4-5.09,1.25-1.78,2.29-3.76,3.88-5.23s3.67-2.25,5.53-1.54a32.62,32.62,0,0,1,9.64-1,7.13,7.13,0,0,1,3.27.75c1,.61,1.8,1.68,2.84,2.33a15.74,15.74,0,0,0,2.45,1,10.32,10.32,0,0,1,5.27,5,22.06,22.06,0,0,1,1.73,7.72C51.82,60.53,52.05,63.1,51.23,65.43Z" transform="translate(0 -9.83)"/><path class="cls-6" d="M47,83.64c.37,5,2.71,9.84,3.34,14.79-1.26-1.12-3-2.24-3.23-3.54S46,91.65,45.86,90.23s.81-3.13-.18-4.13c-.49-.48.8-.35.33-.83A6.5,6.5,0,0,1,44.62,81c-.11-2.75.22-5.53-.26-8.23A43.63,43.63,0,0,0,43,67.84a56.49,56.49,0,0,1-1.36-5.75,42,42,0,0,1-.87-5.23,9.11,9.11,0,0,1,.58-4.5,4,4,0,0,1,3.39-2.48c4.86.07,4,7,5.09,10.23A26,26,0,0,1,51.06,64a10.42,10.42,0,0,1,.14,1.58c-.64,1.76-1.83,3.25-2.59,5a22.35,22.35,0,0,0-1.4,7A35.66,35.66,0,0,0,47,83.64Z" transform="translate(0 -9.83)"/><path class="cls-10" d="M50.14,60a26,26,0,0,1,1.24,3.84c.39,2.23-.21,4.6.44,6.77a12.19,12.19,0,0,1,.42,1.46,12.16,12.16,0,0,1,0,2.09,12.43,12.43,0,0,0,.63,3.3,62.27,62.27,0,0,1,2,11.25,14.52,14.52,0,0,0,.46,3c.12.33.22.67.31,1a6.55,6.55,0,0,1,0,1.4,28.76,28.76,0,0,0-.08,4.45,6.31,6.31,0,0,0,1.73,4,5.24,5.24,0,0,1-2.86.11c-1.29-.44-2.07-1.82-2.73-3.06-.83-1.6-4-3-4.33-4.82-.25-1.4-1.08-3.24-1.22-4.67S47,87,46,86c-.48-.48.81-.35.34-.83a6.5,6.5,0,0,1-1.39-4.32c-.11-2.75.22-5.53-.26-8.23a43.63,43.63,0,0,0-1.37-4.88A56.49,56.49,0,0,1,41.92,62a40.16,40.16,0,0,1-.86-5.23,9,9,0,0,1,.57-4.5A4,4,0,0,1,45,49.81C49.9,49.87,49.07,56.82,50.14,60Z" transform="translate(0 -9.83)"/><path class="cls-6" d="M36.28,61.21c.46.56,1,1.18,1.73,1.07a.36.36,0,0,1-.49.13h0a1,1,0,0,1-.39-.46l-1-1.75c-.13-.22-1-1.55-1.24-.78C34.81,59.73,36.06,60.94,36.28,61.21Z" transform="translate(0 -9.83)"/><path class="cls-6" d="M35.75,65.57a2.38,2.38,0,0,0-.64-1.47,3.53,3.53,0,0,0-1.19-.75,8.08,8.08,0,0,0-3.52-.78c.43.65,1.79,1,2.48,1.41C33.84,64.46,34.8,65,35.75,65.57Z" transform="translate(0 -9.83)"/><path class="cls-6" d="M38.81,78a5.77,5.77,0,0,1-2.62,3.63,11.69,11.69,0,0,0-3.38,3c-.55.91-.8,2-1.27,2.91s-1.23,2-1.91,2.9a5,5,0,0,0-.91,3.32.46.46,0,0,0,.13.27.35.35,0,0,0,.37,0c1.24-.72,1.75-2.3,2.24-3.66a41.56,41.56,0,0,1,1.87-4,3.69,3.69,0,0,1,1.23-1.61,10.28,10.28,0,0,1,1.21-.44,4.1,4.1,0,0,0,1.5-1.24A10.86,10.86,0,0,0,39.57,76c0-.54,0-3.15-.82-2.34S39,76.92,38.81,78Z" transform="translate(0 -9.83)"/><path class="cls-5" d="M40.71,18.51c2.47,1.14,4.6,3.64,4.52,6.47s-2.43,5.77-1.62,8.62c.47,1.65,1.89,2.76,3,4,4.28,4.77,4.27,13.1,0,17.86-1.65,1.82-3.76,3.11-5.5,4.85C35,66.41,34.72,76.94,38,85.1a35.79,35.79,0,0,1-7.65.91c-1.21,0-2.68-.21-3.12-1.4s.29-2.57-.5-3.38a2.43,2.43,0,0,0-1.44-.51c-3.24-.56-5.89-3.28-7.1-6.48a18.41,18.41,0,0,1-.46-10.14c.5-2.44,1.27-5.12.12-7.3-1.44-2.75-5.57-3.9-5.51-7,.06-2.57,2.93-3.82,4.57-5.73,3-3.52,1.57-9,1.57-13.72,0-4.17,1.38-8.48,4.33-11.26C27.2,14.84,35.65,16.2,40.71,18.51Z" transform="translate(0 -9.83)"/><g class="cls-11"><path d="M18.32,53.65c-1.26-2.4-4.57-3.59-5.34-5.95a3.5,3.5,0,0,0-.62,1.9c-.07,3.14,4.06,4.29,5.5,7a6,6,0,0,1,.6,3.19C18.89,57.69,19.29,55.49,18.32,53.65Z" transform="translate(0 -9.83)"/><path d="M43.94,29.72a17.44,17.44,0,0,0,1.31-4.85,4.69,4.69,0,0,0,0-.53C44.66,26.16,43.77,27.93,43.94,29.72Z" transform="translate(0 -9.83)"/><path d="M18.82,38.19c1-3.29.13-7.37.13-11A11.92,11.92,0,0,1,19,25.86a18.2,18.2,0,0,0-.54,4.29C18.46,32.76,18.93,35.59,18.82,38.19Z" transform="translate(0 -9.83)"/><path d="M47.09,52.39c-1.65,1.81-3.76,3.1-5.5,4.84A18.62,18.62,0,0,0,36.46,69a17.57,17.57,0,0,1,4.64-8.78c1.72-1.73,3.85-3,5.5-4.85a13.19,13.19,0,0,0,3.2-8.19A12.59,12.59,0,0,1,47.09,52.39Z" transform="translate(0 -9.83)"/><path d="M30.83,82.91c-1.21,0-2.68-.21-3.12-1.4s.29-2.56-.5-3.38a2.59,2.59,0,0,0-1.44-.51c-3.23-.55-5.89-3.28-7.1-6.48a16.91,16.91,0,0,1-.86-7.5,1.63,1.63,0,0,1-.07.3A18.68,18.68,0,0,0,18.2,74.1c1.21,3.21,3.87,5.93,7.1,6.48a2.51,2.51,0,0,1,1.44.52c.8.81.1,2.29.5,3.38s1.91,1.41,3.12,1.4A36.52,36.52,0,0,0,38,85a25.29,25.29,0,0,1-.93-2.7A36.39,36.39,0,0,1,30.83,82.91Z" transform="translate(0 -9.83)"/></g><path class="cls-6" d="M40.24,69.71c.71.56,1.48-1.58,1-2.12A10.52,10.52,0,0,0,40.24,69.71Z" transform="translate(0 -9.83)"/><path class="cls-6" d="M43.27,108.57a4.69,4.69,0,0,0,2.27-1.33c.45-.59.82-2.91-.13-1.8S44.21,107.65,43.27,108.57Z" transform="translate(0 -9.83)"/><path class="cls-6" d="M51.78,106.1a3.55,3.55,0,0,1-.76,2c-.09.1-.29.16-.32,0A7.31,7.31,0,0,0,52.19,107c1-1,1.1-3.51-.38-4.17A25.64,25.64,0,0,1,51.78,106.1Z" transform="translate(0 -9.83)"/><path class="cls-7" d="M62,101.64s-8.16-3.38-11.11-3,3.34,5.24,3.34,5.24L58,106.55s2.3-.91,2.45-1S62,101.64,62,101.64Z" transform="translate(0 -9.83)"/><path class="cls-2" d="M5.88,65.42s6.13-3.75,14.22.91,9.44,32,9.44,32S26.23,126.22,39,120c0,0,23.28-7.61,25.61-5.93,0,0,2.21,0-2.2,1s-21.46,6.72-21.46,6.72-5.51,2-7.84,0-9,.26-9.81-13.69a253.21,253.21,0,0,0-3.06-26.2L18,74.81Z" transform="translate(0 -9.83)"/><path class="cls-9" d="M5.15,108.54S7.84,80.27,3.46,70.1c-3.84-8.89,11-4.73,14.91-3.52a2.88,2.88,0,0,1,1.49,1.12A52.6,52.6,0,0,1,28,103s-1,16.27,5.15,18.85l-18.88-6.41a40.87,40.87,0,0,0-4.65-1.33C7.54,113.62,4.29,112.26,5.15,108.54Z" transform="translate(0 -9.83)"/><polygon class="cls-2" points="139.43 151.5 141.88 151.5 143.49 116.79 143.6 114.81 141.52 114.04 141.38 116.14 139.43 151.5"/><polygon class="cls-6" points="141.38 116.14 143.49 116.79 143.6 114.81 141.52 114.04 141.38 116.14"/><path class="cls-5" d="M119,147.92a6,6,0,0,1-.34,1.39,2.48,2.48,0,0,1-1,1.38,2.79,2.79,0,0,1-1.06.22,5.31,5.31,0,0,1-5.3-1.86,64.09,64.09,0,0,1-7.11-8.9,2.39,2.39,0,0,1-.56-1.81,26.17,26.17,0,0,0,7.69-3.71,3.77,3.77,0,0,1,1.09-.61,5.38,5.38,0,0,1,2-.08c.66.11.69.14.94.91.41,1.31.34,2.73.81,4a12.68,12.68,0,0,0,1.07,2.07A11.45,11.45,0,0,1,119,147.92Z" transform="translate(0 -9.83)"/><path class="cls-6" d="M119,147.92a6,6,0,0,1-.34,1.39,2.48,2.48,0,0,1-1,1.38,2.79,2.79,0,0,1-1.06.22,5.31,5.31,0,0,1-5.3-1.86,64.09,64.09,0,0,1-7.11-8.9,2.39,2.39,0,0,1-.56-1.81c.89-.27,1.77-.58,2.63-.93h0a10.26,10.26,0,0,1,2.14,2.55l2,3a7.86,7.86,0,0,0,1.26,1.61,8.44,8.44,0,0,0,2,1.23,24.93,24.93,0,0,0,2.87,1.35C117.1,147.43,118.17,147.54,119,147.92Z" transform="translate(0 -9.83)"/><path class="cls-7" d="M120.82,115.58a9.78,9.78,0,0,1-.72,1.45,63.91,63.91,0,0,0-6.13,15.1c-.39-.09-.62.48-.61.91s0,1-.38,1.14a2,2,0,0,0-.35.1c-.24.11-.31.43-.35.71l-.34,2.62a4.62,4.62,0,0,0,.21,2.7,4.27,4.27,0,0,0,1.11,1.21l5.61,4.66c.23.19.51.4.79.29.63-.24.07-1.43.57-1.91.34-.33.87-.08,1.33-.12a1.52,1.52,0,0,0,1.21-1.25,6,6,0,0,0,0-1.89,1.88,1.88,0,0,1,.1-.85,2,2,0,0,1,.68-.7,7.89,7.89,0,0,0,3-6.55,3.76,3.76,0,0,1,0-1.16,3.4,3.4,0,0,1,.52-1,88.45,88.45,0,0,0,5.43-9.2,18.92,18.92,0,0,0,2.3-5.71.54.54,0,0,0-.28-.69h-.14a17.59,17.59,0,0,0-2.57-.65,76.67,76.67,0,0,1-7.76-2.27C121.57,111.7,121.59,113.4,120.82,115.58Z" transform="translate(0 -9.83)"/><polygon class="cls-2" points="108.67 158.84 112.72 159.36 131.34 114.81 136.37 114.42 145.2 117.14 146.91 170.17 150.95 170.17 149.36 115.2 159.04 115.46 176.32 160.77 180 160.77 161.83 107.81 161.13 105.78 134.04 104.8 127.29 108.78 127.2 109.01 108.67 158.84"/><path class="cls-6" d="M127.2,118.84c5.82,1.85,11.87,3.86,11.87,3.86s5.51,2,7.84,0a3.52,3.52,0,0,1,1-.56,5.45,5.45,0,0,1-1,.56l14.92-5.06-.69-2-27.09-1-6.75,4Z" transform="translate(0 -9.83)"/><path class="cls-9" d="M154.75,110.1l-11-2.58s-26.35,5.16-28.31,7.23c0,0,21.08,4.51,23.41,6S155,124,154.75,110.1Z" transform="translate(0 -9.83)"/><path class="cls-5" d="M113.83,151.55c-.66,1.34-2.3,1.71-3.74,1.73a14.79,14.79,0,0,1-5.84-1.1,31.12,31.12,0,0,0-3.18-1.29c-1.63-.48-3.45-.44-4.88-1.38a5.91,5.91,0,0,1-1.84-2.1c-.08-.15-.17-.31-.24-.46a6.71,6.71,0,0,1-.62-4.57c.38-1.52,1.77-3.19,3.38-3.17,1.91,0,4.19,1,6,1.48a22.91,22.91,0,0,1,6.63,2.58,10.25,10.25,0,0,1,4,4.52,8.68,8.68,0,0,1,.38,1.12A3.7,3.7,0,0,1,113.83,151.55Z" transform="translate(0 -9.83)"/><path class="cls-6" d="M113.83,151.55c-.66,1.34-2.3,1.71-3.74,1.73a14.79,14.79,0,0,1-5.84-1.1,31.12,31.12,0,0,0-3.18-1.29c-1.63-.48-3.45-.44-4.88-1.38a5.91,5.91,0,0,1-1.84-2.1c-.08-.15-.17-.31-.24-.46l.7.07a26.76,26.76,0,0,1,5.13,1.36,27.73,27.73,0,0,0,7.18,1.19,9.31,9.31,0,0,0,5-1,13,13,0,0,1,1.4-.81,7.38,7.38,0,0,1,.38,1.12A3.73,3.73,0,0,1,113.83,151.55Z" transform="translate(0 -9.83)"/><path class="cls-7" d="M126.18,94a89.62,89.62,0,0,0-11.33-1l-4.63-.19a2,2,0,0,0-1,.12,7.51,7.51,0,0,0-.76.61,3,3,0,0,1-1.62.4A76,76,0,0,0,95,95.54,11.12,11.12,0,0,0,89.46,98a8.91,8.91,0,0,0-2.36,6.19A24,24,0,0,0,88.22,111a32.1,32.1,0,0,1,1.24,8.15,14.62,14.62,0,0,0,.09,2.29,10.94,10.94,0,0,0,.6,2.12l2.12,6,.57,1.55c.2.55.4.91.58,1.39.26.65.46,1.33.67,2l1.4,4.66.19.61a18.07,18.07,0,0,0,2,4.83,5.59,5.59,0,0,0,4.11,2.69,14.59,14.59,0,0,1,1.62,0,6.22,6.22,0,0,1,1.32.51,9.64,9.64,0,0,0,4,.81,3.75,3.75,0,0,0,3.32-1.47,5.33,5.33,0,0,0,.57-2.07,9.71,9.71,0,0,0-.1-4.29c-.29-.82-.77-1.52-1.11-2.32a24.38,24.38,0,0,1-.92-3.45,13.24,13.24,0,0,0-3.82-6.41,68.42,68.42,0,0,1-1.44-8.29,7.51,7.51,0,0,0-.35-1.82c-.33-.91-1-1.64-1.3-2.57a9.69,9.69,0,0,0-.67-2.59c4,1.17,8,.91,12.25.84a31.47,31.47,0,0,0,4-.25,12,12,0,0,1,1.89-.21,9.49,9.49,0,0,1,3.71,1.14,29.59,29.59,0,0,0,10.58,2.87c3.78.16,7.52-.77,11.21-1.7a10.67,10.67,0,0,0,4.6-2,4.09,4.09,0,0,0,1.22-4.69,5.49,5.49,0,0,0-3-2.22c-3.23-1.34-6.48-2.65-9.59-4.28C134.94,100.34,131.39,94.89,126.18,94Z" transform="translate(0 -9.83)"/><path class="cls-12" d="M119.52,80.29a30.18,30.18,0,0,1-1.77,2.81,7.49,7.49,0,0,0-.86,5.34,6,6,0,0,0,3.23,4.15,7.52,7.52,0,0,0,2.24.56,4.63,4.63,0,0,0,3-.35,4.58,4.58,0,0,0,1.57-1.7,18,18,0,0,0,1.62-4.43A30.44,30.44,0,0,0,129.84,78a3.44,3.44,0,0,0-1-2.73,3.35,3.35,0,0,0-1.33-.46l-3.81-.74c-.74-.14-2-.71-2.65-.15s-.68,2.2-.79,3A13.23,13.23,0,0,1,119.52,80.29Z" transform="translate(0 -9.83)"/><path class="cls-12" d="M165.6,68.57l-1,8.76a41.12,41.12,0,0,0-.35,4.71,3.81,3.81,0,0,1-.53,2.51,2.11,2.11,0,0,1-1,.63,5.1,5.1,0,0,1-3.67-.5,3,3,0,0,1-1.59-1.45,3.79,3.79,0,0,1-.22-1.53c0-5.23.47-10.67,3.06-15.12a3.25,3.25,0,0,1,.91-1.11,2.85,2.85,0,0,1,2.47-.09c.5.16,1.86.34,2.17.81S165.67,68,165.6,68.57Z" transform="translate(0 -9.83)"/><ellipse class="cls-12" cx="139.29" cy="16.18" rx="10.35" ry="10.9"/><path class="cls-12" d="M136.52,42.25a5.7,5.7,0,0,1-.64,2.43q7.94-1.27,15.81-2.84A7.75,7.75,0,0,1,148,37.3a13.81,13.81,0,0,1-.46-3.2,41.15,41.15,0,0,1,.09-5.21,24.15,24.15,0,0,0-5.33,1.56A52.47,52.47,0,0,1,137,32c-.88.21-1.76.38-2.65.54s-1.53.2-.81,1.15C135.46,36.24,136.79,38.84,136.52,42.25Z" transform="translate(0 -9.83)"/><path class="cls-10" d="M139.7,40.8a7.74,7.74,0,0,0-3.88,1.35,13.25,13.25,0,0,0-1.18,1.19c-2.17,2.21-5.22,3.1-7.85,4.67a3.44,3.44,0,0,0-1.12.92c-.28.42-.43,1-.73,1.38s-.91.78-1.18,1.32a4,4,0,0,0-.24,1.67,16.91,16.91,0,0,1-.86,3.64c-1.6,5.72-.72,12.11-3.14,17.51a2.4,2.4,0,0,0,1.27,1.4,6.83,6.83,0,0,0,1.89.43L128,77a4.09,4.09,0,0,0,2.27-.14A29.65,29.65,0,0,0,129,82.57a30.59,30.59,0,0,1-.6,3.55,11.93,11.93,0,0,1-4.78,6.4,1.73,1.73,0,0,0-.68.66c-.29.6.14,1.28.44,1.87.88,1.72.76,3.79.75,5.74s.17,4.09,1.47,5.49a7.84,7.84,0,0,0,2.82,1.7l8.37,3.52A27,27,0,0,0,141,113a24.34,24.34,0,0,0,6.76.41c1.49-.07,3-.17,4.48-.3a3.47,3.47,0,0,0,1.69-.47,3.38,3.38,0,0,0,1-1.42c1.16-2.67,1.55-5.78,3.36-8,1.24-1.54,3.16-2.77,3.3-4.77.07-1-.35-2-.36-3,0-1.23.61-2.4.57-3.63-.07-2-1.86-3.53-2.15-5.51-.72-5,1.7-10,3.18-14.86a3.38,3.38,0,0,1,1.4-2.19c.79-.37,1.9-.17,2.18-1a18.67,18.67,0,0,0,.79-6.64c0-1.27-.48-2.5-.43-3.77,0-.89.31-1.75.38-2.64a11.79,11.79,0,0,0-.58-4,6.4,6.4,0,0,0-.45-1.34,6.66,6.66,0,0,0-.74-1.08L164,47.1a6.68,6.68,0,0,0-2.3-2.09c-.31-.8-1.29-1.35-2-1.8a21.72,21.72,0,0,0-2.21-1.11l-7.9-3.7a2.83,2.83,0,0,0-.94-.32,2.8,2.8,0,0,0-1.39.3A33.76,33.76,0,0,1,139.7,40.8Z" transform="translate(0 -9.83)"/><path class="cls-13" d="M131.32,27.91c-.31-1.13-1.08-2.11-1.2-3.28a9.36,9.36,0,0,1,.57-3.05,3,3,0,0,0-.52-2.92c-.13-.12-.29-.22-.33-.39s.19-.58.28-.88c.17-.61-.54-1.28-.28-1.86.14-.32.51-.43.83-.53a3.77,3.77,0,0,0,2.79-2.56c1,.42,2-.37,2.73-1.15s1.64-1.65,2.66-1.42l-.23.49a7,7,0,0,1,4.84-.06H143a6.45,6.45,0,0,1,3.84,1.38c-.12,0-.13.19-.08.3a3.35,3.35,0,0,0,2.43,1.76,3.43,3.43,0,0,1,1.7.71c.44.46.44,1.4-.14,1.62A15,15,0,0,1,154.07,18a1.16,1.16,0,0,1,.58.91,5.22,5.22,0,0,1-.18.56,2,2,0,0,0,.06,1l.32,1.39c.35,1.54.62,3.4-.44,4.51a4.31,4.31,0,0,1-.7,4.9,2,2,0,0,1-1.25,2.51l-.21.06a1.4,1.4,0,0,1-.53,1.78,2.94,2.94,0,0,1-1.91.3,7.89,7.89,0,0,0-2-.11c-.94.15-1.87.83-2.78.53a6.49,6.49,0,0,1-1-.55,7.61,7.61,0,0,0-2.09-.61,9.5,9.5,0,0,1-3.37-1.51A4,4,0,0,1,137,31.83c-.63-1.68.43-3.89-.69-5.26a1.91,1.91,0,0,0-2.69-.13c-.36.34-.41,1.06-.79,1.32A5,5,0,0,1,131.32,27.91Z" transform="translate(0 -9.83)"/><path class="cls-6" d="M117.26,114.72a4.86,4.86,0,0,1-1-1.21,2.32,2.32,0,0,1-.32-1.56,4.63,4.63,0,0,0,1.12,3.85,3.65,3.65,0,0,0,3.13,1.27C120,116.18,117.93,115.32,117.26,114.72Z" transform="translate(0 -9.83)"/><path class="cls-2" d="M174.12,66s-6.13-3.74-14.22.91-9.44,32-9.44,32,3.31,27.88-9.44,21.68c0,0-23.28-7.62-25.61-5.94,0,0-2.21,0,2.2,1s21.46,6.73,21.46,6.73,5.51,2,7.84,0,9,.26,9.81-13.69a251,251,0,0,1,3.06-26.21l2.27-7.1Z" transform="translate(0 -9.83)"/><path class="cls-9" d="M174.85,109.1s-2.69-28.27,1.73-38.47c3.84-8.89-11-4.73-14.91-3.52a2.88,2.88,0,0,0-1.49,1.12,52.59,52.59,0,0,0-8.11,35.32s1,16.27-5.15,18.85L165.8,116c1.53-.52,3.08-1,4.65-1.33C172.46,114.23,175.71,112.87,174.85,109.1Z" transform="translate(0 -9.83)"/></svg>