<svg id="Réteg_1" data-name="Réteg 1" xmlns="http://www.w3.org/2000/svg" viewBox="0 0 92.15 175.4"><defs><style>.cls-1{opacity:0.1;isolation:isolate;}.cls-2{fill:#3f3d56;}.cls-3{fill:#2f2e41;}.cls-4{fill:#f2f2f2;}.cls-5{fill:#ffb9b9;}.cls-6{fill:#575a89;}</style></defs><title>problem</title><ellipse class="cls-1" cx="41.86" cy="168.58" rx="33" ry="5.93"/><rect class="cls-2" x="38.92" y="53.6" width="5.53" height="43.19"/><path class="cls-3" d="M65.38,34.35a12.12,12.12,0,0,1,3.42-1.82A82.13,82.13,0,0,1,92.86,27c7.15-.54,14.91.1,20.5,4.89a7.39,7.39,0,0,1,2.08,2.58,10,10,0,0,1,.26,5.26,6.45,6.45,0,0,1-.48,2A4.07,4.07,0,0,1,111,43.53c-1.61-.18-3.12-.91-4.71-1.24a19.69,19.69,0,0,0-3-.32l-9.94-.58C87.2,41,80.93,40.68,74.86,42a17.71,17.71,0,0,0-5.35,2c-1.38.83-2.32,2-3.6.49C63.65,41.78,62.4,36.83,65.38,34.35Z" transform="translate(-43.3 -2.62)"/><path class="cls-4" d="M80.8,39s13.38-6.38,18.45,1-2.76,4.42-2.76,4.42l-8.77,3-9.69-2Z" transform="translate(-43.3 -2.62)"/><path class="cls-5" d="M81.49,34.37s1.84,9.33.46,11.79,7.84,5.9,7.84,5.9l8.77-3.93s-2.31-15.24,0-18.19Z" transform="translate(-43.3 -2.62)"/><path class="cls-1" d="M81.49,34.37s1.84,9.33.46,11.79,7.84,5.9,7.84,5.9l8.77-3.93s-2.31-15.24,0-18.19Z" transform="translate(-43.3 -2.62)"/><path class="cls-6" d="M72.84,146.64a55.94,55.94,0,0,1,3,8.51.66.66,0,0,0,.74.59l.07,0h8.21c1,0,2.37-.34,2.36-1.42,0-.76-.74-1.23-1.28-1.72-1.5-1.37-1.89-3.62-2.51-5.62a18.94,18.94,0,0,0-6.66-9.51,3.61,3.61,0,0,0-1.42-.75,3.74,3.74,0,0,0-1.56.09c-1.44.31-6.82,1.37-5.8,3.6.44,1,2.06,2,2.74,2.86A20.94,20.94,0,0,1,72.84,146.64Z" transform="translate(-43.3 -2.62)"/><path class="cls-6" d="M101.38,136.5a20.93,20.93,0,0,1-1,1.89c-1.19,2.09-2.59,4-3.7,6.18a10.67,10.67,0,0,0-1.35,4.3,4.92,4.92,0,0,0,1.57,4.06,5.48,5.48,0,0,0,4.3.78,19.79,19.79,0,0,1,4.45-.56c-.51-3,1.89-5.69,2.49-8.71.17-.84.2-1.72.42-2.55a14.12,14.12,0,0,1,.93-2.19,29.4,29.4,0,0,0,2.51-7.87c0-.33-7.3-.39-8-.23C101.9,132.1,102.22,134.6,101.38,136.5Z" transform="translate(-43.3 -2.62)"/><path class="cls-3" d="M44.72,88.89c-2.1,3.5-1.62,8.13-.14,12s3.82,7.24,5.42,11c1,2.41,1.74,5,2.9,7.31,1.42,2.91,3.51,5.47,4.47,8.58.61,2,.75,4.16,1.74,6a18.41,18.41,0,0,0,2,2.69,25.44,25.44,0,0,1,4.7,8.93A8.48,8.48,0,0,1,72.23,140c2.78-.62,5.66-.2,8.48.22a38.48,38.48,0,0,1-4.09-8.13,84.89,84.89,0,0,1-1.78-8.73c-1.25-6-3.92-11.46-6.56-16.89l13.58-1.14a49.48,49.48,0,0,1,6.67-.27c3.51.18,6.94,1.09,10.43,1.52s7.17.31,10.28-1.43a54.91,54.91,0,0,0-8.84,31,10.82,10.82,0,0,1,15.81,2.14,12.71,12.71,0,0,1,1.25,2.15c5.32-7.75,4.69-18.54,8.9-27,.87-1.74,1.93-3.37,2.87-5.07a78.41,78.41,0,0,0,4.53-10.66c1.18-3.22,2.37-6.79,1.24-10a10.74,10.74,0,0,0-2-3.3c-2.43-2.86-5.82-5-9.44-5.06-5.56-.13-10.15,4.26-15,7.1a32.77,32.77,0,0,1-19,4.19c-6.7-.5-13.09-2.84-19.48-4.89A86.27,86.27,0,0,0,60.33,83c-2.73-.55-5.34,0-8,.8C49.36,84.65,46.41,86.07,44.72,88.89Z" transform="translate(-43.3 -2.62)"/><path class="cls-5" d="M102.71,25c0,8.14-6.2,14.74-13.84,14.74a13.57,13.57,0,0,1-2.46-.23c-7.52-1.45-12.52-9.12-11.16-17.13S83.81,9.07,91.33,10.52c6.59,1.27,11.38,7.38,11.38,14.51Z" transform="translate(-43.3 -2.62)"/><path class="cls-4" d="M80.8,39a15.86,15.86,0,0,1,3.46,2.22c.92,1,3.69,6.39,8.3,3s5.08-5.41,6.46-5.41,3.23,3,3.23,3l12.69,40.54a54.35,54.35,0,0,1-11.76,10.57c-7.39,4.91-16.15,7.37-20.31,5.4s-12-3.44-13.38-7.37S65.8,75.16,65.8,75.16l6.46-30Z" transform="translate(-43.3 -2.62)"/><path class="cls-3" d="M79,80a20.41,20.41,0,0,0,1.23-7.48A47.81,47.81,0,0,0,80.07,65c-.41-3.29-1.42-6.46-2-9.7a43.36,43.36,0,0,1-.81-8.66A7.46,7.46,0,0,1,78,42.79a12.13,12.13,0,0,0,1.51-2.25c.58-1.7-.86-3.49-2.43-4.19a9,9,0,0,0-6-.26,27.67,27.67,0,0,0-5.62,2.45,12.87,12.87,0,0,0-3.67,2.53A13.23,13.23,0,0,0,59.24,47a12.82,12.82,0,0,0-.46,5.21c.5,2.8,2.65,4.91,3.79,7.49,1.33,3,1.24,6.48.71,9.75s-1.46,6.46-1.75,9.76.15,6.84,2.09,9.43c.79,1.06,2.94,3.56,4.39,3.27,1.13-.22,2.78-2.89,3.7-3.73C74.36,85.71,77.5,83.54,79,80Z" transform="translate(-43.3 -2.62)"/><path class="cls-3" d="M103.19,37.43a15.36,15.36,0,0,1-2.43,7.69,54.87,54.87,0,0,0-3.88,7.1,17.24,17.24,0,0,0-.71,10,34.94,34.94,0,0,0,1,3.35L99.71,73a12.76,12.76,0,0,0,1.47,3.28,9.88,9.88,0,0,0,2,2,18.23,18.23,0,0,0,6.5,3.62,10.41,10.41,0,0,0,7.23-.44,117.66,117.66,0,0,1,4.49-29.53c.5-1.77,1.06-3.63.67-5.43-.44-2-2-3.54-3.41-4.92-4.42-4.23-9.29-8.68-15.21-9.25C100,32,103.16,35.45,103.19,37.43Z" transform="translate(-43.3 -2.62)"/><path class="cls-5" d="M72.91,94.57c.35.73.57,1.53.92,2.26a12.43,12.43,0,0,0,1.88,2.7c3.08,3.64,6.86,7.27,11.46,7.49a3,3,0,0,0,1.35-.18A2.89,2.89,0,0,0,90,104.65c.32-1.9-.47-3.8-1.26-5.54C87,95.33,85.07,91.46,81.86,89a12.19,12.19,0,0,0-11.08-1.77c-1.66.55-4.43,1.5-2.22,3.12C70.23,91.61,71.94,92.54,72.91,94.57Z" transform="translate(-43.3 -2.62)"/><path class="cls-5" d="M92.8,46.5a11,11,0,0,0-2.16-3.72A7.88,7.88,0,0,0,87.33,41a17,17,0,0,0-4.85-.74c-2,0-4.22.55-5,2.43-.66,1.5-.15,3.27.51,4.76a4.68,4.68,0,0,0,1.37,2,7.1,7.1,0,0,0,2.93.79,13.19,13.19,0,0,1,4.34,2.09L90,54.5l5.88,3.78c-.16-.1-.1-4.39-.28-5.1A49.93,49.93,0,0,0,92.8,46.5Z" transform="translate(-43.3 -2.62)"/><path class="cls-3" d="M75.68,154c-1.38,2-1.1,4.84-2.32,6.94-1.06,1.82-3,2.78-4.37,4.4a11.82,11.82,0,0,0-1.12,1.72c-1.23,2.18-2.22,5-1,7.18,1,1.77,3,2.46,4.89,2.93a16.72,16.72,0,0,0,7.22.62,7.25,7.25,0,0,0,5.58-4.44,17.9,17.9,0,0,1,.6-1.79c1.29-2.72,5.36-2.75,6.69-5.46.93-1.89.08-4.18-.78-6.11l-2.61-5.9c-.86-1.95-4.37-.83-6.2-1.3C79.86,152.22,77.39,151.55,75.68,154Z" transform="translate(-43.3 -2.62)"/><path class="cls-3" d="M95.84,149a8,8,0,0,0-2.36,3.44,39.75,39.75,0,0,0-2.16,10.07,13,13,0,0,0-.07,4.13,8,8,0,0,0,5.49,5.72,21.68,21.68,0,0,0,8,.58,5.45,5.45,0,0,0,2.52-.54,4.28,4.28,0,0,0,1.64-4.27,12.45,12.45,0,0,0-1.88-4.46,12.77,12.77,0,0,1-1.88-4.45c-.39-2.72.72-6.72-.85-9.19S98,147.4,95.84,149Z" transform="translate(-43.3 -2.62)"/><path class="cls-3" d="M102.37,17.35a3.69,3.69,0,0,0-1.53-2.12,9.1,9.1,0,0,0-.32-2.8c-.84-2.64-2.82-2.49-4.7-3.65-.81-.51-.76-1-1.18-1.79a6.48,6.48,0,0,0-2.4-2.6,8.28,8.28,0,0,0-3.89-1.76c-3-.22-5.28,2.77-8.14,3.73-1.26.43-2.61.45-3.88.85A3.66,3.66,0,0,0,73.62,10c-.09.65.06,1.31,0,2-.17,1.27-1.22,2.17-1.93,3.22-1.55,2.32-1.38,5.6-.13,8.13a10.73,10.73,0,0,0,.9,1.49,9.57,9.57,0,0,0,.94,3.42,16.59,16.59,0,0,0,5.63,6,15.73,15.73,0,0,1-.33-2.56,1.86,1.86,0,0,1,.1-.84c.25-.56.91-.7,1.41-1a3.88,3.88,0,0,0,1.48-3.29c0-1.28-.23-2.55-.1-3.82a1.69,1.69,0,0,1,1.93-1.85c2.13-.1,4.36-.14,6.24-1.21a9.14,9.14,0,0,1,1.94-1.05c1.6-.44,3.23.75,4.15,2.21s1.38,3.2,2.23,4.7,2.32,2.86,4,2.68a.63.63,0,0,0,.49-.24.83.83,0,0,0,.09-.44l.09-6.69A10.73,10.73,0,0,0,102.37,17.35Z" transform="translate(-43.3 -2.62)"/><path class="cls-3" d="M58.56,52.32c-1.32,2.07-2.84,4.07-3.57,6.45-.43,1.41-.56,2.89-.87,4.32-1,4.79-4,9-4.3,13.94a7.08,7.08,0,0,0,.44,3.19c.85,2,2.89,3,4.84,3.68s4,1.12,5.59,2.53a18.54,18.54,0,0,1,2.12,2.62,20.48,20.48,0,0,0,9.8,7.14c-.3-2.23-.45-4.93,1.23-6.31a5.83,5.83,0,0,1,3.27-1l5.4-.5a69.86,69.86,0,0,0-11.85-9.83c-1.49-1-3.12-2-3.8-3.74a9.55,9.55,0,0,1-.43-3.46,91,91,0,0,0-1-12.78c-.45-2.94-1-5.85-1.71-8.73-.19-.81-1.31-4.45-2.68-3.6-.33.2-.63,2.51-.82,3A18.54,18.54,0,0,1,58.56,52.32Z" transform="translate(-43.3 -2.62)"/><path class="cls-3" d="M120.83,44.48l2.2,4.89a12.37,12.37,0,0,1,1.4,6.61l.13,14.67a22.79,22.79,0,0,1-.46,5.84,4.65,4.65,0,0,1-.76,1.75,5.36,5.36,0,0,1-1.3,1.12c-4.18,2.78-9.6,4.36-14,2a20.29,20.29,0,0,1-2.88-2,23.38,23.38,0,0,1-4.86-4.67,33.54,33.54,0,0,1-3.09-6.51A50.55,50.55,0,0,0,90.81,57,3,3,0,0,1,90,55.37c0-1.29,1.4-1.92,2.52-2.41a6.44,6.44,0,0,0,4-4.62C100.62,54,105.1,60,111.5,62.07a.63.63,0,0,0,.91-.22.74.74,0,0,0,.11-.39c.36-1.61.49-3.28.75-4.92A29.4,29.4,0,0,1,116.05,48C116.81,46.5,119.27,41,120.83,44.48Z" transform="translate(-43.3 -2.62)"/><path class="cls-1" d="M66,58.62a23.84,23.84,0,0,1-2,10.05,8.57,8.57,0,0,0-.79,2.21,6.16,6.16,0,0,0,1.65,4.54A17.5,17.5,0,0,0,72.36,81" transform="translate(-43.3 -2.62)"/><path class="cls-1" d="M114,55.69a5.15,5.15,0,0,0,.22,2.92,31.11,31.11,0,0,1,1,8.54.31.31,0,0,1-.22.37.24.24,0,0,1-.12,0c-1.07.07-2.29.08-3-.76" transform="translate(-43.3 -2.62)"/></svg>