<svg id="Réteg_1" data-name="Réteg 1" xmlns="http://www.w3.org/2000/svg" xmlns:xlink="http://www.w3.org/1999/xlink" viewBox="0 0 124.92 180"><defs><style>.cls-1{fill:#fff;}.cls-2{fill:none;stroke:#535461;stroke-miterlimit:10;stroke-width:2px;}.cls-3{fill:#6c63ff;}.cls-4{fill:url(#Névtelen_színátmenet_3);}.cls-5{fill:#ffb296;}.cls-6{opacity:0.1;}.cls-6,.cls-9{isolation:isolate;}.cls-7{fill:#632652;}.cls-8{fill:#e14b5a;}.cls-9{opacity:0.05;}.cls-10{fill:url(#Névtelen_színátmenet_3-2);}</style><linearGradient id="Névtelen_színátmenet_3" x1="199.78" y1="-0.61" x2="199.78" y2="110.12" gradientTransform="matrix(1, 0, 0, -1, -135, 122.19)" gradientUnits="userSpaceOnUse"><stop offset="0" stop-color="gray" stop-opacity="0.25"/><stop offset="0.54" stop-color="gray" stop-opacity="0.12"/><stop offset="1" stop-color="gray" stop-opacity="0.1"/></linearGradient><linearGradient id="Névtelen_színátmenet_3-2" x1="229.67" y1="27.3" x2="287.46" y2="27.3" xlink:href="#Névtelen_színátmenet_3"/></defs><title>self</title><rect class="cls-1" width="72.56" height="135.43"/><path class="cls-2" d="M140.85,178.93s-3.88-12.87.73-22.35a20,20,0,0,0,1.69-12.76,33.76,33.76,0,0,0-1.85-6" transform="translate(-27.54 0)"/><path class="cls-3" d="M144.28,131.83c0,1.58-2.92,6.16-2.92,6.16s-2.93-4.58-2.93-6.16a2.93,2.93,0,0,1,5.85,0Z" transform="translate(-27.54 0)"/><path class="cls-3" d="M149.13,140.58c-.88,1.32-5.88,3.61-5.88,3.61s.09-5.4,1-6.72a3,3,0,0,1,4-1,2.82,2.82,0,0,1,1.05,3.92Z" transform="translate(-27.54 0)"/><path class="cls-3" d="M148.91,155.52c-1.45.71-6.94.22-6.94.22s2.86-4.61,4.3-5.32a3,3,0,0,1,4,1.1,2.82,2.82,0,0,1-1.12,3.89l-.22.11Z" transform="translate(-27.54 0)"/><path class="cls-3" d="M146.14,166.78c-1.3.94-6.8,1.37-6.8,1.37s2-5,3.33-6a3,3,0,0,1,4.11.4,2.82,2.82,0,0,1-.41,4A1.88,1.88,0,0,1,146.14,166.78Z" transform="translate(-27.54 0)"/><path class="cls-3" d="M137.1,144.5c1.17,1.1,6.56,2.24,6.56,2.24s-1.32-5.24-2.48-6.34a3,3,0,0,0-4.14-.13,2.81,2.81,0,0,0-.13,4l.19.19Z" transform="translate(-27.54 0)"/><path class="cls-3" d="M134,157.71c1.44.71,6.94.22,6.94.22s-2.86-4.61-4.3-5.32a3,3,0,0,0-4,1.1,2.84,2.84,0,0,0,1.13,3.9l.22.11Z" transform="translate(-27.54 0)"/><path class="cls-3" d="M132.87,171c1.3.94,6.8,1.36,6.8,1.36s-2-5-3.32-5.95a3,3,0,0,0-4.06.79A2.82,2.82,0,0,0,132.87,171Z" transform="translate(-27.54 0)"/><path class="cls-2" d="M45.82,120.82s-2.58-8.59.49-14.9a13.31,13.31,0,0,0,1.12-8.51,22.44,22.44,0,0,0-1.23-4" transform="translate(-27.54 0)"/><path class="cls-3" d="M48.11,89.43c0,1-2,4.1-2,4.1s-1.95-3-1.95-4.1a2,2,0,0,1,3.9-.15v.15Z" transform="translate(-27.54 0)"/><path class="cls-3" d="M51.33,95.26c-.58.88-3.91,2.41-3.91,2.41s.06-3.6.64-4.48a2,2,0,0,1,2.72-.44,1.87,1.87,0,0,1,.55,2.51Z" transform="translate(-27.54 0)"/><path class="cls-3" d="M51.19,105.21c-1,.47-4.62.15-4.62.15s1.91-3.08,2.87-3.55a2,2,0,0,1,2.58.94,1.89,1.89,0,0,1-.83,2.46Z" transform="translate(-27.54 0)"/><path class="cls-3" d="M43.33,97.87c.77.74,4.36,1.5,4.36,1.5s-.87-3.49-1.65-4.23a2,2,0,0,0-2.75.15,1.87,1.87,0,0,0,0,2.58Z" transform="translate(-27.54 0)"/><path class="cls-3" d="M41.29,106.68c1,.47,4.62.14,4.62.14S44,103.75,43,103.27a2,2,0,0,0-2.65.74,1.89,1.89,0,0,0,.76,2.59.61.61,0,0,0,.14.07Z" transform="translate(-27.54 0)"/><path class="cls-3" d="M40.51,115.5c.87.63,4.53.91,4.53.91s-1.35-3.35-2.22-4a2,2,0,0,0-2.74.31,1.86,1.86,0,0,0,.32,2.67l.1.08Z" transform="translate(-27.54 0)"/><path class="cls-4" d="M81.63,66.69l-.83-9.78a2.88,2.88,0,0,0,.83-.44l-.09-.33.09-.07-1.41-4.91s-.73-6-.77-9a2.78,2.78,0,0,1,.17-1.24,3.33,3.33,0,0,0,.22-1.64c0-.47,0-1,0-1.56.21-1.41.34-4.22-1.63-5.62a14.19,14.19,0,0,0,2.23-7.77c0-6.78-4.42-12.27-9.87-12.27s-9.86,5.49-9.86,12.27A14.61,14.61,0,0,0,62,30.44c-1.29.16-3.7.67-4.28,2.23C56.89,34.84,47.84,47,47.84,47v5.31a13.22,13.22,0,0,0,3.55.18l7.9,7.29s.41-.06,1-.18a39.89,39.89,0,0,0-.67,7.15,22.25,22.25,0,0,0,.45,4.82s2.89,7.11,3,11.3a5.54,5.54,0,0,1-.16,1.28H63c0,.13,0,.26-.08.38s.6.12,1.57.25l.64,4.47s.4,8.46,1.61,9.63l.85,3-.16.71h0s-2.2,6.61-2.84,7.57a3.4,3.4,0,0,0-.13,3,1.34,1.34,0,0,0,1.2.78c1.9.1,2.8,0,4.12-3.27l.19-.46.32,1.12-.13.12s.71,6.78.21,8.06c-.33.82.6,3.74,2.41,3.15s2.59-1,2.59-4.53a22.48,22.48,0,0,0-1.71-8.55.44.44,0,0,0-.17-.16c-.53-2.82-1.34-7.3-1.38-8.87l3.09-11.16a18.05,18.05,0,0,0,.54-2.71l.33-2.64a9,9,0,0,0,1.71-.9v-.38h0s0-.48,0-1.25a27.7,27.7,0,0,1,1.17-8.5c.21,1.06.59,1.82,1.28,1.68C82.23,74.35,81.63,66.69,81.63,66.69Zm-2.48-9.56h.16l0,.74c0-.26-.09-.51-.13-.75ZM61.59,54.05c-.33,1.52-2.28,1.82-2.28,1.82L55,51.21a4,4,0,0,0,.65-.65l-.29-.07c.1-.1.2-.21.29-.32s-2.2-.41-2.36-2a4.19,4.19,0,0,1,1-2.09l5.23-5.7s3.15,2.21,3.22,8a20.57,20.57,0,0,1-.22,2.6s-.42,1.19-.94,3.09Z" transform="translate(-27.54 0)"/><path class="cls-5" d="M80.29,55.14l1,11.55s.59,7.51-1.38,7.89-1.38-6.74-1.38-6.74l.59-12.71Z" transform="translate(-27.54 0)"/><path class="cls-6" d="M81.28,56.68,79.9,51.86s-1.17-9.63-.58-10.4-.2-6-.2-6l-2.46,3.28L76,45.52l2,11.73S80.1,57.64,81.28,56.68Z" transform="translate(-27.54 0)"/><ellipse class="cls-7" cx="42.86" cy="25.22" rx="9.66" ry="12.02"/><path class="cls-8" d="M81.28,56.29,79.9,51.48s-1.17-9.63-.58-10.4-.2-6-.2-6l-2.46,3.28L76,45.13l2,11.74S80.1,57.25,81.28,56.29Z" transform="translate(-27.54 0)"/><path class="cls-8" d="M67.37,101.91s-2.19,6.77-2.77,7.41-.83,3.62,1,3.72,2.74,0,4-3.2,2.64-7.06,2.45-8.17S67.37,101.91,67.37,101.91Z" transform="translate(-27.54 0)"/><path class="cls-9" d="M67.37,101.91s-2.14,6.47-2.77,7.41c-.49.72-.83,3.62,1,3.72s2.74,0,4-3.2,2.64-7.06,2.45-8.17S67.37,101.91,67.37,101.91Z" transform="translate(-27.54 0)"/><rect class="cls-7" x="36.6" y="19.9" width="11.03" height="12.32"/><rect class="cls-6" x="36.6" y="19.9" width="11.03" height="12.32"/><path class="cls-5" d="M66.89,24.14s1.17,4.81,0,6c0,0-2.36,1.35-3,1s-3,.77-3,.77l3.75,8.09,7.87.57,4.14-1.15V34.93l-.2-2.69s-4.72,0-4.53-1.74.59-6.35.59-6.35Z" transform="translate(-27.54 0)"/><path class="cls-5" d="M76.16,81.33l-.62,5A18.41,18.41,0,0,1,75,89l-4.76,17.17-3.15-3.07,3.54-15,1-8.67Z" transform="translate(-27.54 0)"/><path class="cls-9" d="M76.16,81.33l-.62,5A18.41,18.41,0,0,1,75,89l-4.76,17.17-3.15-3.07,3.54-15,1-8.67Z" transform="translate(-27.54 0)"/><path class="cls-5" d="M64.15,81.9l1,6.94s.39,8.28,1.57,9.44l3.94,13.86L73.8,111S71.64,100.22,72,99.45s-.39-7.32-.39-7.32V87.68s0-4.43-.2-5.78S64.15,81.9,64.15,81.9Z" transform="translate(-27.54 0)"/><path class="cls-8" d="M70.05,110.6s.7,6.64.2,7.89c-.32.8.59,3.66,2.37,3.08s2.56-1,2.56-4.43a22.07,22.07,0,0,0-1.68-8.38C72.91,107.8,70.05,110.6,70.05,110.6Z" transform="translate(-27.54 0)"/><path class="cls-6" d="M65.87,37.65c-.8,0-2.18-.78-3-6.14,0,0-4.21.14-5,2.26s-9.65,14-9.65,14v4.82s5.31,1.14,7.68-1.74c0,0-4.14-.77-1.38-4.42l5.12-5.59s4.14,2.89,3,10.78c0,0-4.14,11.75-2.37,19.84,0,0,3.74,9.24,2.76,12.71,0,0,9.85,1.92,14.57-1.35,0,0-.39-7.7,1.78-11.36s-1.78-20.22-1.78-20.22-2.42-4.67-.84-6.4.29-5.72.29-5.72,3.9-5.41-.43-6.56c0,0,.58,6.16-2.17,5.39l-4.92-.36A33.06,33.06,0,0,0,65.87,37.65Z" transform="translate(-27.54 0)"/><path class="cls-8" d="M65.87,37.27c-.8,0-2.18-.79-3-6.15,0,0-4.21.14-5,2.26s-9.65,14.06-9.65,14.06v4.81s5.31,1.15,7.68-1.73c0,0-4.14-.77-1.38-4.43l5.12-5.59s4.14,2.89,3,10.79c0,0-4.14,11.74-2.37,19.83,0,0,3.74,9.25,2.76,12.71,0,0,9.85,1.93,14.57-1.35,0,0-.39-7.7,1.78-11.36S77.53,50.9,77.53,50.9s-1.77-4.43-.19-6.16.19-6,.19-6l1.78.39s1.57-5.78-2.76-6.94c0,0,.58,6.17-2.17,5.39l-4.92-.36A33.06,33.06,0,0,0,65.87,37.27Z" transform="translate(-27.54 0)"/><path class="cls-5" d="M54.31,50.52l5.11,5.58s1.9-.28,2.23-1.79c0,0,6,.64,4.66,2.75S59.41,60,59.41,60L49.17,50.51Z" transform="translate(-27.54 0)"/><path class="cls-6" d="M72.21,29c.19-2,.41-4.54.41-4.54H66.89a20.21,20.21,0,0,1,.53,3.72A6.05,6.05,0,0,0,72.2,29Z" transform="translate(-27.54 0)"/><ellipse class="cls-5" cx="43.2" cy="23.08" rx="5.91" ry="5.78"/><path class="cls-6" d="M49.47,51.77a5.12,5.12,0,0,0,6.07-.53L53.2,49.45H49.27Z" transform="translate(-27.54 0)"/><path class="cls-8" d="M49.27,51.58a5.14,5.14,0,0,0,6.08-.52L53,49.27H49.08Z" transform="translate(-27.54 0)"/><path class="cls-6" d="M77.64,41.37A18,18,0,0,1,77.43,47c-.59,3.27-.53,7.51.32,8.28" transform="translate(-27.54 0)"/><path class="cls-6" d="M63.09,20.58s1.76,2,6.44,1.24a23,23,0,0,1,8.48.25l-1.17-3.23-3.21-2.49H68.94l-4.09,2.49Z" transform="translate(-27.54 0)"/><path class="cls-7" d="M63.09,20.29s1.76,2,6.44,1.25a22.61,22.61,0,0,1,8.48.25l-1.17-3.24-3.21-2.48H68.94l-4.09,2.48Z" transform="translate(-27.54 0)"/><path class="cls-10" d="M151.65,66.93c-1.81-3.79-13.6-17.78-13.6-17.78L132,42.44,130.47,42a32.83,32.83,0,0,0,1.27-9.13v-.58c0-12.42-6.63-22.49-14.81-22.49-5.11,0-9.62,3.93-12.29,9.92a24.82,24.82,0,0,0-2.13,10.36,26.47,26.47,0,0,0,1.17,8.1c.46,1.5.92,2.94,1.4,4.3l-.14.08-6.19,2.24s-2.26,2.35-2.16,7a17,17,0,0,0,1,5.78A17.93,17.93,0,0,1,98.3,63c-.07,8.46-3.48,19-3.48,19l.15.1c-.09.31-.15.49-.15.49a19.5,19.5,0,0,0,1.9,1l-1,12.93s-3.33,8.75,1.81,11.95l1.81-11.37,2.25-12.1a5.08,5.08,0,0,0,.78,0l.22,0c-.92,1.19-2.42,4.17-2.34,10.94,0,.48,0,1,0,1.48,0,0,6,27.1,5.75,28.27l.6,0v5.8s-.9,9,2.12,16c.33.76.62,1.53.88,2.29,0,.19,0,.39,0,.61.16,2.21-.21,3-.59,3.2a1.1,1.1,0,0,0-.59,1c.1,1.09.38,2.69,1.18,3.07.52.25,1.27.45,2,.81.32,2.31.38,3.85.38,3.85l.61,4.37h0a5.72,5.72,0,0,0,0,1.17c.16,2.21-.21,3-.59,3.2a1.09,1.09,0,0,0-.58,1c.09,1.09.37,2.69,1.17,3.07,1.21.57,3.63.87,4.53,3.5s2.12,0,2.12,0a11.58,11.58,0,0,1-.14-3.11,18.45,18.45,0,0,0,.07-3.86,8.17,8.17,0,0,1,.37-2.65,5,5,0,0,0-1.1-4.21c-.45-2.44-1.56-8.62-1.32-9.78a26.08,26.08,0,0,0,0-3.39c3-7.42,7.92-20.54,7.28-23.43a17.42,17.42,0,0,1,0-5.19l4.56-2.09s.37-13,2.42-16.61c.69-1.24,1-4.07.94-7.44a91,91,0,0,0-1-13.29A7.26,7.26,0,0,0,135,82.36l12.77-9.55a3.94,3.94,0,0,0,3.86-.36,2.45,2.45,0,0,0,.8-2.29A6.33,6.33,0,0,0,151.65,66.93ZM132.92,79.3c-1.21-.29-3-3.55-3-4.44s-1.36,0-1.36,0a28.16,28.16,0,0,1-.91-7c.05-4.46,1.13-9.18,4.39-11.35l12.09,11.53.13.3c-2.85,3.08-10.35,11.16-11.33,10.92Z" transform="translate(-27.54 0)"/><path class="cls-8" d="M113,145.6s-3.22,0-2.92,4c.16,2.17-.2,2.91-.56,3.14a1.08,1.08,0,0,0-.56,1c.09,1.06.36,2.64,1.12,3,1.17.57,3.51.86,4.39,3.43s2,0,2,0a11.48,11.48,0,0,1-.14-3,18.56,18.56,0,0,0,.07-3.8,8.17,8.17,0,0,1,.36-2.6C117.25,148.89,116.22,145.31,113,145.6Z" transform="translate(-27.54 0)"/><path class="cls-9" d="M113,145.6s-3.22,0-2.92,4c.16,2.17-.2,2.91-.56,3.14a1.08,1.08,0,0,0-.56,1c.09,1.06.36,2.64,1.12,3,1.17.57,3.51.86,4.39,3.43s2,0,2,0a11.48,11.48,0,0,1-.14-3,18.56,18.56,0,0,0,.07-3.8,8.17,8.17,0,0,1,.36-2.6C117.25,148.89,116.22,145.31,113,145.6Z" transform="translate(-27.54 0)"/><path class="cls-5" d="M144.61,68.07s-10.83,12-12,11.73-2.93-3.44-2.93-4.3-1.31,0-1.31,0,.44,8.59,1.61,8.59a7.14,7.14,0,0,0,4.68-1.43L149,71.78Z" transform="translate(-27.54 0)"/><path class="cls-5" d="M97.79,81.23,96.62,96.68s-3.22,8.58,1.75,11.73l1.76-11.16,2.92-16Z" transform="translate(-27.54 0)"/><path class="cls-5" d="M125.88,114.41s-2.34,9.45-1.46,13.45-9.08,28-9.08,28l-3.51-3.43,2.34-26.61,2.93-22.32Z" transform="translate(-27.54 0)"/><path class="cls-9" d="M125.88,114.41s-2.34,9.45-1.46,13.45-9.08,28-9.08,28l-3.51-3.43,2.34-26.61,2.93-22.32Z" transform="translate(-27.54 0)"/><path class="cls-5" d="M107.15,122.14V131s-.88,8.87,2,15.74a46.87,46.87,0,0,1,3.22,14.59l.58,4.29,5.86-.86s-1.76-9.16-1.47-10.59S116.22,131,116.22,131s1.17-7.73.59-10.87a24.34,24.34,0,0,0-2.93-6.87Z" transform="translate(-27.54 0)"/><path class="cls-8" d="M115.93,162.77s-3.22,0-2.93,4c.16,2.17-.2,2.92-.56,3.15a1.12,1.12,0,0,0-.56,1c.1,1.06.36,2.64,1.12,3,1.17.57,3.52.86,4.39,3.43s2,0,2,0a12,12,0,0,1-.14-3.05,17.8,17.8,0,0,0,.08-3.79,7.89,7.89,0,0,1,.35-2.6C120.17,166.06,119.15,162.48,115.93,162.77Z" transform="translate(-27.54 0)"/><ellipse class="cls-5" cx="89.85" cy="27.44" rx="8.78" ry="8.58"/><path class="cls-5" d="M121.78,28.87s-2.63,12,7.32,14.88S118,50,118,50l-14.93-5.15s16.68-8,12.59-16Z" transform="translate(-27.54 0)"/><path class="cls-6" d="M117.39,44.89l-11.87-.77-6,2.2s-3.8,4-1.17,12-2.63,24.6-2.63,24.6,4,2.66,7.31,2.43a5.2,5.2,0,0,0,.88-.14s-3.22,2-2.93,12.3c0,0,5.86,26.61,5.56,27.76,0,0,6.44.57,8.78-.86,0,0,1.76-15.17,3.51-15.17,0,0,4.1,12.31,3.81,14.31l6.14-2.86s.36-12.73,2.35-16.31c2.17-3.93,0-24.32-1.76-26s-4.1-16.31,2.34-20.6l11.71,11.15s2.63,6.87,7.31,4c0,0,1.76-1.15,0-4.86s-13.17-17.46-13.17-17.46L131.72,44,127,42.6S120.61,47.47,117.39,44.89Z" transform="translate(-27.54 0)"/><path class="cls-8" d="M117.39,44.32l-11.87-.77-6,2.2s-3.8,4-1.17,12-2.63,24.6-2.63,24.6,4,2.66,7.31,2.42a5.19,5.19,0,0,0,.88-.13s-3.22,2-2.93,12.3c0,0,5.86,26.61,5.56,27.75,0,0,6.44.58,8.78-.85,0,0,1.76-15.17,3.51-15.17,0,0,4.1,12.31,3.81,14.31l6.14-2.86s.36-12.73,2.35-16.31c2.17-3.94,0-24.32-1.76-26s-4.1-16.31,2.34-20.6l11.71,11.16s2.63,6.87,7.31,4c0,0,1.76-1.15,0-4.87S137.57,50,137.57,50l-5.85-6.58L127,42S120.61,46.89,117.39,44.32Z" transform="translate(-27.54 0)"/><path class="cls-6" d="M105.25,54.76s.88,10.59,1.75,13.16-1.75,15.74-1.75,15.74" transform="translate(-27.54 0)"/><path class="cls-6" d="M105.25,21.69a25.41,25.41,0,0,0-.93,17.56c3,9.77,6.06,16.88,12.82,16.88,7.92,0,14.34-9.89,14.34-22.08S125.06,12,117.14,12C112.19,12,107.83,15.82,105.25,21.69Z" transform="translate(-27.54 0)"/><path class="cls-7" d="M105.25,21.12a25.41,25.41,0,0,0-.93,17.56c3,9.77,6.06,16.88,12.82,16.88,7.92,0,14.34-9.89,14.34-22.08S125.06,11.4,117.14,11.4C112.19,11.38,107.83,15.25,105.25,21.12Z" transform="translate(-27.54 0)"/></svg>