<svg id="Réteg_1" data-name="Réteg 1" xmlns="http://www.w3.org/2000/svg" viewBox="0 0 129.72 178.11"><defs><style>.cls-1{fill:#f2f2f2;}.cls-2{fill:#2f2e41;}.cls-3{opacity:0.1;isolation:isolate;}.cls-4{fill:#ffc1c7;}.cls-5{fill:#6c63ff;}</style></defs><title>target</title><path class="cls-1" d="M159.18,31a7.14,7.14,0,0,0-9.09,3.74,4,4,0,0,0-.21.47,8,8,0,0,0-.31,1.06,7.24,7.24,0,0,1,7.33-7.17,6.85,6.85,0,0,1,2.45.48,7.14,7.14,0,0,1,1.6.88,7.13,7.13,0,0,0-10.18.14,7.37,7.37,0,0,0-2,5.28A10.21,10.21,0,0,0,135,37.44a9.44,9.44,0,0,0-4,8.69,38.81,38.81,0,0,0-5.7,5S113.59,60.79,108,66.81s0,7.83,0,7.83,5.6.54,10.19.46a8.07,8.07,0,0,0,.73,5.65s-.73,6.79-2.82,7.47c-.79.26-.19.42.86.52l-.36.7a5.21,5.21,0,0,0-1.31,0s-2.17,2.45-4.69,5.32c-1.58-.24-2.84-.33-2.81,0s1,.78,1.95,1c-3.08,3.51-6.37,7.3-6.79,7.91-.81,1.18-20.29,19.7-25.76,28.38s-6.74,10.06-6.74,10.06,1.07,1.06,2.72,2.64c-1.78,4.83-6,15.72-9.64,20.32.13-.42-1.81-.26-3.92,1.9l-.55.29c-1.84,1-7.88,4-10.68,3.17-3.32-.92-5,3.48-3.44,4.26s4.32,3.16,8.65,3.36a21.94,21.94,0,0,0,5.47-.64c2.38-.52,4.41-1.12,5.34-.75,1.6.62,8,.13,6.92-1.79s.23-5.5.23-5.5-.44.05-1.12.08C72,165,78.33,157,81.92,152.72c.93.8,1.85,1.58,2.74,2.3,6.19,5,9.39,6.26,9.39,6.26s-.13-4.52,5-10.35c1.58-1.8,4-4.93,6.46-8.4,1.68,8.71,4.25,20.16,6.34,21.19a6.13,6.13,0,0,0,2.19.5c1.33,3.44,3.5,9.19,5.11,14.25H128c-2-5.08-3.8-11-3.89-15.32,1.7-.34,2.87-.62,2.87-.62,2.33-6.18-1.76-24.54-3.57-30.46s1.07-9.65,1.07-9.65c4.44-8.51,4.22-13,3.6-15,.37-1,.7-2,1-3s.6-2.11.91-3c6.07.09,12.3.12,13.12-.12a3.61,3.61,0,0,0,1.65-1.53,10.42,10.42,0,0,0,1.69-5.41,159.34,159.34,0,0,0-.34-19.51c2.09-5.48,3.19-11.85,0-15.61,0,0-.43-.25-1.08-.57a19.24,19.24,0,0,1,.2-4.22,9.61,9.61,0,0,0,2.15-.81c.15-.07.29-.15.43-.23q.44-.26.84-.54a10.37,10.37,0,0,0,3.7-4.81c.06-.18.13-.35.18-.52a1.21,1.21,0,0,0,.05-.18c0-.12.07-.24.11-.35s0-.14,0-.21.06-.21.08-.32a1.85,1.85,0,0,0,0-.23c0-.1,0-.2,0-.3a1.85,1.85,0,0,0,0-.23l0-.3a2,2,0,0,0,0-.23c0-.1,0-.2,0-.3a1.93,1.93,0,0,0,0-.24,2.71,2.71,0,0,0,0-.29v-.24h0l.09,0a7.27,7.27,0,0,0,4.71,4.9,7.33,7.33,0,0,1-3.68-4.42,7.36,7.36,0,0,0,1.47.37,7.16,7.16,0,0,0,7,2.52,7.18,7.18,0,0,1-5.78-2.45,7.59,7.59,0,0,0,1.34-.19,6.73,6.73,0,0,0,1.31-.44,7.27,7.27,0,0,0,2.26-1.62,7.36,7.36,0,0,0,.88-1.12,7.44,7.44,0,0,0,.65-1.33c.06-.16.11-.33.16-.49a7.33,7.33,0,0,0-4.31-9Zm-96,134.42a1.06,1.06,0,0,1,.17-.2c-.06.07-.11.14-.17.2Zm68.59-101.9c-4.58,1.3-12.84,3.61-15.7,4.18,2.36-5.16,11-12.46,11-12.46a18.16,18.16,0,0,0,5.5-4.67,9.36,9.36,0,0,0,2.8,2.7c0,1.08,0,2.19-.07,3.24-.45-.08-.71-.06-.69.17.08.78.33,5-1.44,5.78a5.65,5.65,0,0,0-1.37,1.06Zm3.24,31c-.45,0-1.08,0-1.81.08,1.17-1.74,3.18-4.68,4.9-6.89.19,2.87.25,4.76.25,4.76s.35,2-3.34,2Z" transform="translate(-34.08 -0.94)"/><ellipse class="cls-2" cx="46.58" cy="20.19" rx="10.29" ry="10.44"/><path class="cls-3" d="M87.59,13.41a10.55,10.55,0,0,1-.68,14.75,10.17,10.17,0,0,1-13.85,0,10.18,10.18,0,0,0,14.53.7,10.55,10.55,0,0,0,.69-14.75C88.06,13.87,87.83,13.63,87.59,13.41Z" transform="translate(-34.08 -0.94)"/><ellipse class="cls-2" cx="57.22" cy="9.05" rx="7.2" ry="7.31"/><path class="cls-3" d="M91.3,16.26a7.24,7.24,0,0,1-7.18-6.78c0,.17,0,.34,0,.52a7.2,7.2,0,1,0,14.4,0c0-.18,0-.35,0-.52A7.24,7.24,0,0,1,91.3,16.26Z" transform="translate(-34.08 -0.94)"/><path class="cls-2" d="M83.75,8.61A7.23,7.23,0,0,1,90.91,1.3a6.44,6.44,0,0,1,1.85.24,7.16,7.16,0,0,0-9.45,3.83A7.35,7.35,0,0,0,87.09,15a9.67,9.67,0,0,0,1,.36A7.32,7.32,0,0,1,83.75,8.61Z" transform="translate(-34.08 -0.94)"/><path class="cls-2" d="M90.26,15a7.29,7.29,0,0,1,4.63-9.16,7.14,7.14,0,0,1,1.83-.35,7.31,7.31,0,0,0-1.38,14.55,7.93,7.93,0,0,0,1.09,0A7.22,7.22,0,0,1,90.26,15Z" transform="translate(-34.08 -0.94)"/><path class="cls-2" d="M92.57,15.6a7.37,7.37,0,0,1-.42-10.29,7,7,0,0,1,1.43-1.22,7.36,7.36,0,0,0-3.65,9.65,7.16,7.16,0,0,0,9.51,3.7,6.89,6.89,0,0,0,1-.53A7.11,7.11,0,0,1,92.57,15.6Z" transform="translate(-34.08 -0.94)"/><path class="cls-4" d="M89.07,35.93s-11,7.66-10.29,4.18c.38-2-1.07-6.12-2.42-9.38-1-2.55-2-4.55-2-4.55l12-3.13a19.39,19.39,0,0,0,0,5.59A18,18,0,0,0,89.07,35.93Z" transform="translate(-34.08 -0.94)"/><polygon class="cls-4" points="38.52 67.71 37.84 73.62 47.44 72.58 49.16 66.31 38.52 67.71"/><path class="cls-4" d="M61,59.6,58.89,62s-5.83.34-2.75-7.31S66.78,33.84,66.78,33.84s4.8-11.83,6.51-7.31S69.86,37,69.86,37,63.35,48.81,64,54Z" transform="translate(-34.08 -0.94)"/><path class="cls-3" d="M61,59.6,58.89,62s-5.83.34-2.75-7.31S66.78,33.84,66.78,33.84s4.8-11.83,6.51-7.31S69.86,37,69.86,37,63.35,48.81,64,54Z" transform="translate(-34.08 -0.94)"/><path class="cls-4" d="M93.87,141.05s15.44,16.71,17.15,21.58-2.74,12.53-4.46,12.88-2,2.44,0,2.78,8.92-2.78,11-6.26,3.43-5.92,4.46-6.61,1.71-3.83,0-5.57-15.78-15-17.49-23Z" transform="translate(-34.08 -0.94)"/><path class="cls-2" d="M119.94,158.45s-.69,7-6.86,3.83c0,0-2.74-3.13-2.74.7s-1.38,10.44-5.83,12.88,3.08,3.48,4.11,3.13,7.89-2.78,8.92-4.87,4.8-7,6.17-8.7S123.37,157.76,119.94,158.45Z" transform="translate(-34.08 -0.94)"/><path class="cls-2" d="M88,84.31s4.8,2.09,3.09,16.36c0,0-1.37,4.53,2.4,9.4s14.06,20.54,14.06,27.15c0,0-9.94,7-13.72,6.61s-18.52-26.1-18.52-26.1Z" transform="translate(-34.08 -0.94)"/><path class="cls-3" d="M88,84.31s4.8,2.09,3.09,16.36c0,0-1.37,4.53,2.4,9.4s14.06,20.54,14.06,27.15c0,0-9.94,7-13.72,6.61s-18.52-26.1-18.52-26.1Z" transform="translate(-34.08 -0.94)"/><path class="cls-4" d="M51,137.57s.68,25.06-3.43,27.85c0,0-5.49,8-8.92,8s-3.09,2.79-1.37,3.13,2.06,1.4,8.92-1.39,10.29-3.48,11.32-3.48,2-1.39,0-5.57,5.83-25.41,5.83-25.41Z" transform="translate(-34.08 -0.94)"/><path class="cls-2" d="M58.2,163.68a24.2,24.2,0,0,1-5.83,2.08c-2.4.35-3.75-2.11-3.25-3s-1.55-.16-2.92,3c0,0-5.83,7-9.26,7.31s-3.46,5.06-1.72,5.22,5.15,1.4,9.26,0,7.89-5.22,9.61-5.22,7.54-2.78,5.83-4.17S58.2,163.68,58.2,163.68Z" transform="translate(-34.08 -0.94)"/><path class="cls-4" d="M79.81,41S65.4,51.94,63.35,53s-4.46,9-4.46,9,12.34-3.49,14.4-5.92S79.81,41,79.81,41Z" transform="translate(-34.08 -0.94)"/><path class="cls-3" d="M79.81,41S65.4,51.94,63.35,53s-4.46,9-4.46,9,12.34-3.49,14.4-5.92S79.81,41,79.81,41Z" transform="translate(-34.08 -0.94)"/><ellipse class="cls-4" cx="44.53" cy="21.93" rx="9.26" ry="9.4"/><path class="cls-2" d="M70.89,73.17s-6.17,16.36-6.51,17.76-12,25.75-14.07,35.85-2.74,11.83-2.74,11.83,10.29,4.53,17.83,7,11,2.43,11,2.43-1.72-4.18,1-11.48,8.23-30.64,8.23-30.64S90,92.14,89.07,82.22A37.29,37.29,0,0,1,89,74.53a3,3,0,0,0-2.6-3.35,2.44,2.44,0,0,0-.54,0C80.76,71.52,72.53,72.23,70.89,73.17Z" transform="translate(-34.08 -0.94)"/><path class="cls-5" d="M89.07,33.84s-4.46-.69-6.52.35-5.48.7-5.14,1.39,2.06,4.53.68,5.92-2.74,7.66-5.48,9.4-6.86,7.65-1.38,12.88c0,0,1.72,6.61,0,8s5.49-1.39,5.49-1.39a14.64,14.64,0,0,1,4.46,1.74c2.4,1.39,7.89,1,7.89,1S91.47,62.38,92.84,60,97.3,38.37,89.07,33.84Z" transform="translate(-34.08 -0.94)"/><path class="cls-4" d="M86.67,39.41s-7.89,1.39-2.74,9.4a140.45,140.45,0,0,1,9.6,18.8s1,1.74-2.4,3.13-16.81,8-16.81,8-8.92,1.4-8.57,2.09,3.77,0,3.77,0-2.4,6.62,1.71,6.62,6.18-4.18,6.18-4.18,22.29-8,23.67-9a3.66,3.66,0,0,0,1-2,10.41,10.41,0,0,0-.32-5.67C99.43,59.59,91.85,38.24,86.67,39.41Z" transform="translate(-34.08 -0.94)"/><path class="cls-2" d="M85.49,16.25a7.51,7.51,0,0,0-10-3.83,7.7,7.7,0,0,0,0,14,7.51,7.51,0,0,0,10,3.82,7.71,7.71,0,0,0,3.77-10.13,7.59,7.59,0,0,0-3.77-3.82Z" transform="translate(-34.08 -0.94)"/><ellipse class="cls-4" cx="41.95" cy="25.24" rx="0.86" ry="2.26"/></svg>