<svg id="Réteg_1" data-name="Réteg 1" xmlns="http://www.w3.org/2000/svg" viewBox="0 0 163.94 180"><defs><style>.cls-1{fill:#2f2e41;}.cls-2{opacity:0.2;}.cls-2,.cls-6{isolation:isolate;}.cls-3{fill:#6c63ff;}.cls-4{fill:#656478;}.cls-5{fill:#fbbebe;}.cls-6{opacity:0.1;}.cls-7{fill:#434175;}.cls-8{fill:#3f3d56;}</style></defs><title>work</title><path class="cls-1" d="M82.15,45.13h28.28c29.08,0,52.67,22.34,52.67,49.9h0v67.61H29.48V95c0-27.55,23.58-49.9,52.67-49.9Z" transform="translate(-8.49 0)"/><path class="cls-2" d="M85.24,47.85h22.09c29.09,0,52.67,22.34,52.68,49.9h0v62.17H32.57V97.75c0-27.56,23.58-49.9,52.67-49.9Z" transform="translate(-8.49 0)"/><path class="cls-3" d="M79.64,61.78q-10.12.63-20.16,2a19.94,19.94,0,0,0-5.57,1.37,16.13,16.13,0,0,0-3.69,2.51,46.13,46.13,0,0,0-11.75,15.1c-1.73,3.56-3,7.32-4.59,10.91-5.78,12.82-16.27,23.31-22.37,36a30.36,30.36,0,0,0-2.87,8.6c-.46,3.09.06,6.69,2.74,8.5a11.55,11.55,0,0,0,4.21,1.47A535.85,535.85,0,0,0,71.75,157a8.82,8.82,0,0,1-2.46-7.44,25.72,25.72,0,0,1,2.48-7.69q-16-3.36-32-7c-1.59-.36-3.5-1-3.69-2.59a3.69,3.69,0,0,1,.71-2.22A119.48,119.48,0,0,1,53,108.29c0,8.23-.43,17.51-.43,25.74H152.85a68.8,68.8,0,0,1-2.12-14.32c-.47-15.75,5.13-31.38,3.68-47.11a9.18,9.18,0,0,0-1.15-4.18c-1.38-2.15-4.14-3-6.68-3.77-9.72-2.8-19.65-5.63-29.82-5.41-3,.06-6,.4-9,.73C98.58,61,88.83,61.2,79.64,61.78Z" transform="translate(-8.49 0)"/><path class="cls-4" d="M32.69,156.29,40,178.42a.72.72,0,0,0,.69.49H72l-7.43-25.79L33.32,155.4a.69.69,0,0,0-.66.74A.4.4,0,0,0,32.69,156.29Z" transform="translate(-8.49 0)"/><path class="cls-5" d="M86.24,71.3a14.09,14.09,0,0,1-4.5,1.26l-10,1.64c-1.94.32-4,.69-5.48,1.9-3.07,2.49-2.41,7.05-1.48,10.77l1.86,7.45c1.4,5.61,2.83,11.28,5.69,16.35,5,8.86,14.2,15.24,24.3,18.31a28.59,28.59,0,0,0,11.19,1.43c7.38-.77,13.69-5.76,17.58-11.75s5.75-12.94,7.45-19.79c1.63-6.56,3.18-13.21,3.07-20a11.09,11.09,0,0,0-1.43-6.07c-2.59-3.91-8.46-4.2-13.27-3.48a5.18,5.18,0,0,1-2.25,0c-2.16-.64-2.21-3.45-3.14-5.41-1.75-3.68-6.95-4.34-11.21-4s-10.87.76-14.58,3S90.41,69,86.24,71.3Z" transform="translate(-8.49 0)"/><path class="cls-6" d="M86.24,71.3a14.09,14.09,0,0,1-4.5,1.26l-10,1.64c-1.94.32-4,.69-5.48,1.9-3.07,2.49-2.41,7.05-1.48,10.77l1.86,7.45c1.4,5.61,2.83,11.28,5.69,16.35,5,8.86,14.2,15.24,24.3,18.31a28.59,28.59,0,0,0,11.19,1.43c7.38-.77,13.69-5.76,17.58-11.75s5.75-12.94,7.45-19.79c1.63-6.56,3.18-13.21,3.07-20a11.09,11.09,0,0,0-1.43-6.07c-2.59-3.91-8.46-4.2-13.27-3.48a5.18,5.18,0,0,1-2.25,0c-2.16-.64-2.21-3.45-3.14-5.41-1.75-3.68-6.95-4.34-11.21-4s-10.87.76-14.58,3S90.41,69,86.24,71.3Z" transform="translate(-8.49 0)"/><path class="cls-3" d="M78,79.7c1.51,3,2.64,6.18,4.47,9A44.91,44.91,0,0,0,87.6,95c4.79,5.13,9.64,10.3,15.57,14.21A64.2,64.2,0,0,1,120.3,77.22c2.55-2.6,5.75-5.16,9.5-5.06a13,13,0,0,1,6.41,2.37A22.7,22.7,0,0,1,142,79.41a19,19,0,0,1,3.71,10.94,54.66,54.66,0,0,1-1.08,11.6l-3.24,19.84a4.39,4.39,0,0,1-1.44,3.1,4.74,4.74,0,0,1-1.86.64c-11.81,2.17-24,.76-36,.65-13.3-.12-27,1.32-39.57-2.69a3.94,3.94,0,0,1-1.79-1,3.62,3.62,0,0,1-.62-1.26c-2.93-9-.58-18.68,1.16-27.95a207.68,207.68,0,0,0,2.94-22.21c.06-.67,7.84.81,8.71,1.29C75.26,73.73,76.84,77.44,78,79.7Z" transform="translate(-8.49 0)"/><ellipse class="cls-5" cx="89.81" cy="49.97" rx="25.98" ry="24.62"/><path class="cls-7" d="M87.74,1.67C80.81,2.5,73.33,3.6,68.43,8.32,65.69,11,64.09,14.47,62.76,18c-2,5.42-3.57,11.14-3.09,16.89.43,5.15,2.44,10.41.81,15.34-.75,2.27-2.22,4.25-3.36,6.36a32.27,32.27,0,0,0-3.47,12.71,20.88,20.88,0,0,0,.84,9c1.12,3,3.29,5.64,4.67,8.59,2.05,4.35,2.25,9.25,2.41,14s.29,9.49.41,14.24c.07,3,.08,6.18-1.67,8.66,6.44-2.44,13-4.93,18.46-8.91s10-9.74,10.67-16.26C90,93.28,88.12,88.07,86.5,83c-4-12.6-6.62-26-3.7-38.9,1.06-4.63,3.62-9.8,8.54-10.65,3-.52,6,.78,8.71,2.12,6.4,3.17,13,7.27,15.37,13.73,2.17,5.83.35,12.34-2.47,17.91s-6.65,10.7-8.84,16.52A29.55,29.55,0,0,0,107.28,111a28.2,28.2,0,0,0,25.83,11.45c-.78-3.18-3.21-5.75-4.51-8.77-2.38-5.48-.78-11.78,1.77-17.19s6-10.46,7.63-16.2a45.67,45.67,0,0,0,1.26-12.45,193.91,193.91,0,0,0-1-19.72,85.27,85.27,0,0,0-3.89-19.49,36.53,36.53,0,0,0-8.2-13.82c-4.1-4.13-9.44-6.93-14.69-9.67-3.13-1.63-6.34-3.29-9.86-3.9A56.07,56.07,0,0,0,93.06,0,7.48,7.48,0,0,0,87.74,1.67Z" transform="translate(-8.49 0)"/><path class="cls-4" d="M119.93,30.37l16.72,3.07a.86.86,0,0,1,.71,1l-8,39.1a.9.9,0,0,1-1,.67l-16.72-3.07a.85.85,0,0,1-.71-1l8-39.11A.89.89,0,0,1,119.93,30.37Z" transform="translate(-8.49 0)"/><path class="cls-8" d="M121.19,30.6l16.72,3.07a.86.86,0,0,1,.71,1l-8,39.1a.9.9,0,0,1-1.05.68l-16.72-3.08a.86.86,0,0,1-.71-1l8-39.11A.9.9,0,0,1,121.19,30.6Z" transform="translate(-8.49 0)"/><ellipse class="cls-3" cx="127.72" cy="40.96" rx="2.95" ry="1.28" transform="translate(52.93 157.56) rotate(-78.16)"/><path class="cls-5" d="M132.94,54.51a10.44,10.44,0,0,0-3.06-3.66,11.24,11.24,0,0,0-2.53-1.07,35.05,35.05,0,0,0-9.22-2.16,1.78,1.78,0,0,0-1.44.38c-.7.77.4,1.82,1.35,2.28L125.59,54l-7-.7c-1-.1-2.45.16-2.38,1.12,0,.63.78,1,1.41,1.17,4.47,1.47,9.64,2.62,12.09,6.45a33.1,33.1,0,0,0-9.79.1,4.1,4.1,0,0,0-2.35,1.13,1.56,1.56,0,0,0,.08,2.27,2.48,2.48,0,0,0,1.6.3c2.27-.11,4.59-.53,6.77.08s4.11,2.77,3.36,4.8a12.77,12.77,0,0,0,6-.79c2-.88,1.92-2.53,1.8-4.52C137,61.5,134.92,57.85,132.94,54.51Z" transform="translate(-8.49 0)"/><path class="cls-6" d="M131,118.39a316,316,0,0,0-7.11-34.26c-1.55-5.86-3.31-11.82-2.87-17.85,6.39.77,12.12,1.34,18-1.13.09,3.16,2.52,5.86,3.4,8.92.59,2.05.37,4.22.6,6.33a36.44,36.44,0,0,0,1.53,6.22,72.41,72.41,0,0,1,2,31.28C141.13,118.51,136.44,119.19,131,118.39Z" transform="translate(-8.49 0)"/><path class="cls-3" d="M130.06,118.39A313.67,313.67,0,0,0,123,84.13c-1.55-5.86-3.31-11.82-2.86-17.85,6.39.77,12.11,1.34,18-1.13.1,3.16,2.52,5.86,3.4,8.92.59,2.05.37,4.22.6,6.33a37.41,37.41,0,0,0,1.53,6.22,72.41,72.41,0,0,1,2,31.28C140.2,118.51,135.51,119.19,130.06,118.39Z" transform="translate(-8.49 0)"/><path class="cls-8" d="M40.65,175.47l3-71.17a4.5,4.5,0,0,1,4.64-4.18l119.55,1.08a4.48,4.48,0,0,1,4.55,4.4c0,.12,0,.23,0,.34l-6.32,68.18a4.5,4.5,0,0,1-4.5,4L45.33,180a4.5,4.5,0,0,1-4.68-4.28Z" transform="translate(-8.49 0)"/><ellipse class="cls-3" cx="98.94" cy="132.46" rx="5.26" ry="5.86"/></svg>