<svg id="Réteg_1" data-name="Réteg 1" xmlns="http://www.w3.org/2000/svg" viewBox="0 0 175 176"><defs><style>.cls-1{fill:#3f3d56;}.cls-2{fill:#6c63ff;}.cls-3{fill:none;stroke:#3f3d56;stroke-miterlimit:10;stroke-width:2px;}.cls-4{opacity:0.1;isolation:isolate;}.cls-5{fill:#ff6584;}</style></defs><title>flower</title><path class="cls-1" d="M112.55,101.3c-22.17,33.13-16.1,75.27-16.1,75.27s42-11.58,64.19-44.71,16.1-75.27,16.1-75.27S134.72,68.17,112.55,101.3Z" transform="translate(-2.5 -2.5)"/><path class="cls-2" d="M96.34,176.18s-.54-.08-1.54-.27c-.79-.16-1.88-.39-3.21-.69-11.91-2.74-43.57-12-64.27-36.3-25.9-30.45-24.81-73-24.81-73S42.12,72.2,68.22,99.55q1.69,1.76,3.3,3.65c22.54,26.49,24.64,62.14,24.81,71C96.35,175.47,96.34,176.18,96.34,176.18Z" transform="translate(-2.5 -2.5)"/><path class="cls-3" d="M80.36,101.3c22.17,33.13,16.09,75.27,16.09,75.27s-42-11.58-64.19-44.71S16.17,56.59,16.17,56.59,58.19,68.17,80.36,101.3Z" transform="translate(-2.5 -2.5)"/><path class="cls-4" d="M96.33,174.15c-.59.69-1.1,1.27-1.53,1.76-.94,1-1.47,1.59-1.47,1.59s-.65-.79-1.74-2.28c-6-8.14-25.25-37.06-23.77-70.48.08-1.75.22-3.48.4-5.19q1.69,1.76,3.3,3.65C94.06,129.69,96.16,165.34,96.33,174.15Z" transform="translate(-2.5 -2.5)"/><path class="cls-2" d="M129.2,107.16c-1.75,39.51-31.85,70.34-31.85,70.34s-27.26-33.24-25.51-72.76S103.69,34.4,103.69,34.4,131,67.64,129.2,107.16Z" transform="translate(-2.5 -2.5)"/><ellipse class="cls-5" cx="36.32" cy="40.83" rx="3.75" ry="3.66"/><line class="cls-3" x1="14.82" y1="175" x2="171.56" y2="175"/><ellipse class="cls-1" cx="97.88" cy="11.35" rx="11.65" ry="11.35"/><ellipse class="cls-3" cx="61.34" cy="19.61" rx="8.47" ry="8.26"/><ellipse class="cls-3" cx="137.64" cy="19.61" rx="8.47" ry="8.26"/><line class="cls-3" x1="94.85" y1="173.88" x2="101.47" y2="33.51"/></svg>