<svg id="b717bf80-dc37-4ec2-be04-489cb3783f30" xmlns="http://www.w3.org/2000/svg" viewBox="0 0 1144.02 729"><defs><style>.cls-1{fill:#6c63ff;opacity:0.1;isolation:isolate;}</style></defs><title>mediacio_bg</title><path class="cls-1" d="M1142.92,572.47a244.13,244.13,0,0,1-8.87,40.61,228.59,228.59,0,0,1-15.08,37c0,82.51-66.1,149.39-147.65,149.39H218.25A186.29,186.29,0,0,1,88,746.37c.32-.09.65-.18,1-.25,69.46-18.42,142.75-24.78,203-68.53Q168.85,657.16,47.14,626.88c-5-1.26-10.68-3.15-16.51-5.13-.27-4.16-.42-8.35-.42-12.57l-1.09-2q-2.39-4.42-4.58-9C9.61,567.18,1.08,531.27,1.08,493c0-60.43,21.23-115,55.25-153.49C285.2,358.39,515.44,350.37,745,342.29q-100.68-20-201.34-40.06-164.17-32.66-328.34-65.34C285.17,138.21,408.44,72.68,548.86,72.68c98.82,0,189.14,32.45,258.34,86.07,25.44-16.91,54.73-26.56,85.9-26.56,64.9,0,121.63,41.73,152.44,104h0c15.58,31.5,24.52,68.24,24.52,107.48,0,7-.29,14-.86,20.89,0,.41-.06.81-.1,1.23,21.4,17.8,39.35,41.1,52.41,68.19.16.33.32.66.47,1q3.43,7.17,6.38,14.66h-.19q-12.6,2.79-25.17,5.69-135.5,31.31-268.47,75.86-38.12,12.78-76,26.62c-21.32,7.8-48.74,25.47-70.84,27,151.1-10.14,303.41,4.64,453.81-12.2Z" transform="translate(0.02 -70.47)"/><path class="cls-1" d="M1144,537.22c0-71.93-30.06-135.47-76-173.67q.95-10.91,1-22.11C1069,224.64,989.76,130,892,130c-31.18,0-60.47,9.64-85.91,26.55-69.2-53.62-159.53-86.05-258.35-86.05-160.74,0-299.1,85.9-360.46,209.13-3.41-.23-6.84-.36-10.3-.36-97.74,0-177,94.68-177,211.47C0,533.65,10.7,573.59,29.1,606.94h0c0,105.08,84.19,190.27,188,190.27H970.24c81.54,0,147.64-66.88,147.64-149.39h0C1134.44,615.64,1144,577.77,1144,537.22Z" transform="translate(0.02 -70.47)"/></svg>