<svg id="a091f3fe-20c2-40df-845f-d86d404f8031" xmlns="http://www.w3.org/2000/svg" viewBox="0 0 383.76 733.49"><defs><style>.cls-1{fill:#ffcdd3;}.cls-2{opacity:0.05;}.cls-2,.cls-3{isolation:isolate;}.cls-3{opacity:0.1;}.cls-4{fill:#dce6f2;}.cls-5{fill:#ff8aa1;}.cls-6{fill:#6c63ff;}</style></defs><title>hero3</title><path class="cls-1" d="M500,254.13l-8.1,50.39s-10.13,33.26-9.11,49.38,0,38.3,0,38.3-24.3,44.34-4.05,62.48S505,397.24,505,397.24s-3-32.25,4.05-49.38,8.11-54.42,8.11-54.42Z" transform="translate(-377.21 -35.62)"/><path class="cls-2" d="M500,254.13l-8.1,50.39s-10.13,33.26-9.11,49.38,0,38.3,0,38.3-24.3,44.34-4.05,62.48S505,397.24,505,397.24s-3-32.25,4.05-49.38,8.11-54.42,8.11-54.42Z" transform="translate(-377.21 -35.62)"/><path class="cls-1" d="M618.6,427.41l14,52.47,13.16,61.47s7.09,13.1,0,40.31l23.29,75.58s13.17,48.38,21.27,49.39-8.1,38.29-8.1,38.29L660,731.82s-6.07-30.23-14.18-37.29-34.42-77.6-34.42-77.6l-8.1-49.38s-25.32-67.52-47.6-83.64-29.36-42.33-29.36-42.33Z" transform="translate(-377.21 -35.62)"/><path class="cls-2" d="M526.29,441.58s7.09,26.2,29.36,42.33,47.6,83.64,47.6,83.64l8.1,49.38s26.32,70.55,34.42,77.6c6,5.18,10.81,22.85,13,31.88.79,3.27,1.21,5.41,1.21,5.41l22.28,13.1s16.2-37.29,8.1-38.29c-1.26-.16-2.63-1.46-4.07-3.53-7.8-11.31-17.2-45.86-17.2-45.86l-23.29-75.58c7.09-27.21,0-40.31,0-40.31l-13.16-61.47-14-52.47Z" transform="translate(-377.21 -35.62)"/><path class="cls-1" d="M396.68,703.6l8.1,19.15,36.45-4a83.35,83.35,0,0,1-1.86-15.82c-.33-11.44,1.44-26.88,11-38.6,17.22-21.16,43.55-73.57,43.55-73.57s26.32-28.22,32.4-39.3L577,466.8l-1.58-7.58,13.67-12.6H504l-20.25,78.61-16.2,32.24S433.13,586.7,420,648.17c0,0-13.14,41-21.5,53.18A14.38,14.38,0,0,1,396.68,703.6Z" transform="translate(-377.21 -35.62)"/><path class="cls-3" d="M658.74,726.41c.79,3.27,1.21,5.41,1.21,5.41l22.28,13.1s16.2-37.29,8.1-38.29c-1.26-.16-2.63-1.46-4.07-3.53a5.66,5.66,0,0,0-2.59,6.28,15.19,15.19,0,0,0,1.6,4.3c3,5-10.13,13.1-10.13,13.1C670.7,732.45,663.5,729.46,658.74,726.41Z" transform="translate(-377.21 -35.62)"/><path class="cls-4" d="M684.68,711.39c-1.39-5.81,5.91-9.71,10-5.35a19.92,19.92,0,0,1,2.73,3.61c4.05,7.05,34.42,13.1,40.5,11.08s27.34-4,22.28,11.09S664,769.11,664,769.11s-10.12-14.11-9.11-24.19a114.92,114.92,0,0,0,0-20.15s14.17,13.1,21.26,4c0,0,13.17-8.07,10.13-13.1A15.44,15.44,0,0,1,684.68,711.39Z" transform="translate(-377.21 -35.62)"/><path class="cls-3" d="M396.68,703.6l8.1,19.15,36.45-4a83.35,83.35,0,0,1-1.86-15.82,5,5,0,0,0-8.13-1.16c-1.89,2-3.79,4.14-5.2,5.89-4.05,5-17.21,2-17.21,2-3.41,1.13-7.46-3.77-10.36-8.3A14.38,14.38,0,0,1,396.68,703.6Z" transform="translate(-377.21 -35.62)"/><path class="cls-4" d="M430.22,703.75a5,5,0,0,1,8.48,2.09c1.84,7.17,5.88,16.43,14.68,19.93,15.19,6.05,36.46,16.13,29.37,25.2s-31.39,17.13-52.66,10.08-51.64-24.19-51.64-24.19l15.19-40.31s8.1,17.13,14.18,15.11c0,0,13.16,3,17.21-2C426.44,707.89,428.34,705.77,430.22,703.75Z" transform="translate(-377.21 -35.62)"/><path class="cls-1" d="M567.81,137.23s-24.31,33.26-18.23,56.44S501,178.55,501,178.55s28.36-25.19,23.29-66.51Z" transform="translate(-377.21 -35.62)"/><path class="cls-5" d="M487.81,452.67c40.5,24.18,89.11,14.1,89.11,14.1l-1-7,2.1.2c38.71,3.41,47.51-8.26,47.51-8.26-6-16.94-10.8-52.86-13.76-80.62-.42-4-.81-7.82-1.16-11.39-.8-8.1-1.4-14.91-1.79-19.51-.33-4.05-.5-6.39-.5-6.39l-4-30.24s-11.14-36.28-6.08-60.46c4.31-20.6-9.74-28-14-29.8a14.76,14.76,0,0,0-2.06-.61c-5.55-1.31-11.74-7-17-13a68.39,68.39,0,0,0-28.4-19.29c-5.09-1.84-9.42-3.8-9.42-3.8-7.09-8.06-26.33-3-26.33-3-23.29,15.12-11.13,64.5-11.13,64.5l9.68,27.53c5.39,15.33,13.08,29.68,22,43.32,14.88,22.85-5.31,54.11-5.31,54.11C484.77,388.17,487.81,452.67,487.81,452.67Z" transform="translate(-377.21 -35.62)"/><path class="cls-2" d="M574.39,405.8,578,459.92c38.71,3.41,47.51-8.26,47.51-8.26-6-16.94-10.8-52.86-13.76-80.62-.42-4-.81-7.82-1.16-11.39Z" transform="translate(-377.21 -35.62)"/><path class="cls-3" d="M510.09,264.21s18.22,34.27,24.3,49.38,6.08,10.08,9.11,15.12,35.44,27.21,35.44,27.21L611.76,371c-1.39-13-2.39-24.26-3-30.9l-30.88-20.5s-21.26-13.1-22.28-30.23S541.48,241,541.48,241,515.15,212.81,504,225.92,510.09,264.21,510.09,264.21Z" transform="translate(-377.21 -35.62)"/><path class="cls-1" d="M541.48,236s13.16,31.24,14.17,48.38,22.28,30.23,22.28,30.23l66.83,44.34s57.72,19.15,38.48,41.32-49.62-24.19-49.62-24.19l-54.68-25.19s-32.4-22.17-35.44-27.21-3,0-9.11-15.12-24.3-49.38-24.3-49.38S492.87,234,504,220.88,541.48,236,541.48,236Z" transform="translate(-377.21 -35.62)"/><path class="cls-3" d="M549.58,249.09s-20.25-15.11-24.3-20.15c-1.79-2.23-4.57-1.9-7.11-.84a32,32,0,0,1-15,2.48c-4.43-.38-8.74-.13-8.23,2.39,1,5-3-26.2-3-26.2l17.21-6.05,22.28,12.09Z" transform="translate(-377.21 -35.62)"/><path class="cls-5" d="M549.58,247.08s-20.25-15.12-24.3-20.16c-1.79-2.22-4.57-1.89-7.11-.83a32,32,0,0,1-15,2.47c-4.43-.38-8.74-.13-8.23,2.39,1,5-3-26.2-3-26.2l17.21-6,22.28,12.09Z" transform="translate(-377.21 -35.62)"/><path class="cls-3" d="M597.27,249.09a24.93,24.93,0,0,1-22.88-1.51" transform="translate(-377.21 -35.62)"/><path class="cls-3" d="M530.85,114.56c.75-6-6.74,6.48-7.6-.51l43.54,25.2s-2.48,3.4-5.66,8.78a45.86,45.86,0,0,1-5,.29C543.06,148.32,538.91,123.59,530.85,114.56Z" transform="translate(-377.21 -35.62)"/><ellipse class="cls-1" cx="179.97" cy="66.84" rx="44.05" ry="43.84"/><path class="cls-3" d="M576.94,103.23c-.34,2.75-.27,5.66-1.59,8.1-1.84,3.42-5.81,5-9.13,7-13.46,8.25-17.45,26.81-13.16,41.95,1.52,5.36,3.91,10.8,2.91,16.27-1.7,9.42-12.48,14.3-22.05,15.13s-19.6-.71-28.55,2.77c-15,5.84-21.66,23.39-34.44,33.2-14.87,11.41-35.35,10.7-54.08,12-6.92.49-14,1.32-20.75-.06s-13.51-5.46-15.91-11.94c-3.39-9.14,2.78-19.06,9.95-25.7s15.93-12.24,20-21.11c5.46-11.92,1-27,7.91-38.16a11.76,11.76,0,0,1,5.58-5.1c3-1.13,6.38-.35,9.61-.24,12.51.43,23.17-9.5,29-20.53s8.28-23.51,13.59-34.79c6-12.76,16-24,29.05-29.56,7.62-3.24,15.95-4.43,23.91-6.74,9.06-2.63,17.7-6.71,27-8.41s19.78-.58,26.56,5.94c6.38,6.14,8.25,15.77,14.35,22.19,2.3,2.42,5.26,4.48,6.37,7.63,2.63,7.46-10.12,8.09-14.38,11.08A27.78,27.78,0,0,0,576.94,103.23Z" transform="translate(-377.21 -35.62)"/><path class="cls-6" d="M574.91,102.22c-.33,2.75-.27,5.66-1.58,8.1-1.85,3.42-5.82,5-9.14,7-13.45,8.25-17.44,26.81-13.16,41.95,1.52,5.35,3.91,10.79,2.92,16.27-1.71,9.41-12.48,14.29-22.06,15.12s-19.59-.7-28.55,2.77c-15,5.84-21.65,23.39-34.44,33.2-14.86,11.41-35.34,10.7-54.07,12-6.92.48-13.95,1.31-20.75-.07s-13.52-5.46-15.92-11.94c-3.39-9.14,2.79-19.06,10-25.7s15.92-12.23,20-21.1c5.46-11.93,1-27,7.91-38.17a11.72,11.72,0,0,1,5.59-5.09c3-1.13,6.38-.35,9.61-.24,12.5.42,23.17-9.5,29-20.53s8.28-23.52,13.59-34.79c6-12.76,16-24,29.05-29.56,7.63-3.25,15.95-4.44,23.92-6.75,9-2.62,17.7-6.71,27-8.41s19.78-.58,26.56,6c6.38,6.13,8.24,15.77,14.34,22.18,2.31,2.43,5.27,4.48,6.38,7.63,2.62,7.46-10.13,8.09-14.38,11.08A27.85,27.85,0,0,0,574.91,102.22Z" transform="translate(-377.21 -35.62)"/></svg>