<svg id="a091f3fe-20c2-40df-845f-d86d404f8031" xmlns="http://www.w3.org/2000/svg" viewBox="0 0 937.26 687.94"><defs><style>.cls-1{fill:#6c63ff;opacity:0.1;isolation:isolate;}.cls-2{fill:#ffdf9c;}</style></defs><title>hero2</title><path class="cls-1" d="M957.39,438.4c-31.82,40.46-19.46,99.57.76,146.9,6.77,15.85,14.43,32.62,11.57,49.62-3.49,20.78-22,36-41.51,44-35.51,14.69-78,11.19-110.62-9.11-28.19-17.54-48.38-46.06-77.05-62.8-48-28-109.06-17.43-161.16,1.87-36.87,13.65-77.17,31.4-113.8,17.14-25.77-10-43.59-34.48-53.29-60.38-4.69-12.51-8.09-26-17-35.95-5.32-5.9-12.26-10.08-19.38-13.61-64.95-32.2-147-14.95-210.08-50.67-42.6-24.13-69.88-69.63-82-117.08s-10.67-97.21-7.6-146.08c2.18-34.72,6.09-71.8,28.28-98.6C128,75.32,168.26,64.78,204.68,70.17s69.42,24.6,98.45,47.22c36.29,28.28,69.95,63.48,114.5,74.94,30.34,7.8,62.26,3.53,93.56,2,52.31-2.47,104.65,3,156.68,9,49.81,5.76,100,12.1,147.43,28.3,33.57,11.46,60.5,32.28,92.2,46.82,20.67,9.48,43.21,12.09,62.78,24.17,24.1,14.87,46.2,40.73,40,71C1004.43,402.49,974.28,416.92,957.39,438.4Z" transform="translate(-74.1)"/><circle class="cls-2" cx="77.01" cy="49.74" r="49.74"/></svg>