<svg id="a091f3fe-20c2-40df-845f-d86d404f8031" xmlns="http://www.w3.org/2000/svg" viewBox="0 0 1169.11 477.99"><defs><style>.cls-1,.cls-4{fill:#6c63ff;}.cls-1,.cls-2{opacity:0.1;}.cls-1,.cls-10,.cls-2,.cls-5{isolation:isolate;}.cls-3{fill:#dce6f2;}.cls-10,.cls-5{fill:#fff;}.cls-5{opacity:0.2;}.cls-6,.cls-7{fill:none;stroke:#535461;stroke-miterlimit:10;}.cls-7{stroke-width:2px;}.cls-8{fill:#fc6681;}.cls-9{fill:#ffd037;}.cls-10{opacity:0.4;}.cls-11{fill:#3f3d56;}</style></defs><title>hero1</title><path class="cls-1" d="M23.73,537.88s183-48,420,74,496-96,491-129,172,0,172,0v295H23.73Z" transform="translate(0 -320.88)"/><path class="cls-2" d="M658.74,726.41c.79,3.27,1.21,5.41,1.21,5.41l22.28,13.1s16.2-37.29,8.1-38.29c-1.26-.16-2.63-1.46-4.07-3.53a5.66,5.66,0,0,0-2.59,6.28,15.19,15.19,0,0,0,1.6,4.3c3,5-10.13,13.1-10.13,13.1C670.7,732.45,663.5,729.46,658.74,726.41Z" transform="translate(0 -320.88)"/><path class="cls-3" d="M684.68,711.39c-1.39-5.81,5.91-9.71,10-5.35a19.92,19.92,0,0,1,2.73,3.61c4.05,7.05,34.42,13.1,40.5,11.08s27.34-4,22.28,11.09S664,769.11,664,769.11s-10.12-14.11-9.11-24.19a114.92,114.92,0,0,0,0-20.15s14.17,13.1,21.26,4c0,0,13.17-8.07,10.13-13.1A15.44,15.44,0,0,1,684.68,711.39Z" transform="translate(0 -320.88)"/><path class="cls-2" d="M396.68,703.6l8.1,19.15,36.45-4a83.35,83.35,0,0,1-1.86-15.82,5,5,0,0,0-8.13-1.16c-1.89,2-3.79,4.14-5.2,5.89-4.05,5-17.21,2-17.21,2-3.41,1.13-7.46-3.77-10.36-8.3A14.38,14.38,0,0,1,396.68,703.6Z" transform="translate(0 -320.88)"/><path class="cls-3" d="M430.22,703.75a5,5,0,0,1,8.48,2.09c1.84,7.17,5.88,16.43,14.68,19.93,15.19,6.05,36.46,16.13,29.37,25.2s-31.39,17.13-52.66,10.08-51.64-24.19-51.64-24.19l15.19-40.31s8.1,17.13,14.18,15.11c0,0,13.16,3,17.21-2C426.44,707.89,428.34,705.77,430.22,703.75Z" transform="translate(0 -320.88)"/><path class="cls-4" d="M60.23,778.38s-33-59,8-106,89-21,89-21,60,28,46,95c0,0-8,34-32,32Z" transform="translate(0 -320.88)"/><path class="cls-5" d="M60.23,778.38s-33-59,8-106,89-21,89-21,60,28,46,95c0,0-8,34-32,32Z" transform="translate(0 -320.88)"/><line class="cls-6" x1="112.06" y1="457.58" x2="148.23" y2="347.5"/><path class="cls-6" d="M181.23,685.38s-18.62-8.76-37.31-3.88c0,0-9.69-24.12-31.69-28.12" transform="translate(0 -320.88)"/><path class="cls-6" d="M190.23,723.38s-31.67-22.88-54.84-15.94c0,0-26.16-31.06-44.16-29.06" transform="translate(0 -320.88)"/><path class="cls-6" d="M183.23,764.38s-27.07-19.57-60.54-18.29c0,0-25.46-30.71-49.46-32.71" transform="translate(0 -320.88)"/><path class="cls-6" d="M126.51,778.46a72.17,72.17,0,0,0-12.93-4.63S92.73,746.71,51,755.55" transform="translate(0 -320.88)"/><path class="cls-4" d="M417.23,778.38s33-54-49-134-77-95-70-107c0,0-66,8-52,107s74,134,74,134Z" transform="translate(0 -320.88)"/><path class="cls-7" d="M370.73,778.38s-24.5-71-61.5-114-30-114-11-127" transform="translate(0 -320.88)"/><path class="cls-8" d="M80.45,366.77c-14.74,15-15.71,37.9-15.71,37.9s22.93-1.31,37.66-16.26,15.71-37.9,15.71-37.9S95.18,351.82,80.45,366.77Z" transform="translate(0 -320.88)"/><path class="cls-4" d="M901.45,415.77c-14.74,15-15.71,37.9-15.71,37.9s22.93-1.31,37.66-16.26,15.71-37.9,15.71-37.9S916.18,400.82,901.45,415.77Z" transform="translate(0 -320.88)"/><path class="cls-4" d="M179.28,399.33c-19.41-8-41-.2-41-.2s9.89,20.73,29.3,28.71,41,.2,41,.2S198.7,407.32,179.28,399.33Z" transform="translate(0 -320.88)"/><path class="cls-9" d="M423.45,369.35c-11.23-17.74-33.35-23.89-33.35-23.89s-3.92,22.63,7.3,40.37,33.35,23.89,33.35,23.89S434.67,387.09,423.45,369.35Z" transform="translate(0 -320.88)"/><circle class="cls-8" cx="694.36" cy="121.81" r="8.67"/><circle class="cls-8" cx="714.58" cy="214.28" r="8.67"/><path class="cls-4" d="M531.73,563.38s-33-37-45,9-19,52-43,40-49,45,10,86,26,81.5,26,81.5h211s28-81.5-33-109.5-59-49-57-77S531.73,563.38,531.73,563.38Z" transform="translate(0 -320.88)"/><path class="cls-7" d="M503.73,549.31s137,180.57,90,230.57" transform="translate(0 -320.88)"/><path class="cls-7" d="M468.3,615.29s32.43,27.59,85.43,13.59S593.66,579,593.66,579" transform="translate(0 -320.88)"/><path class="cls-7" d="M690.17,702.57s-70.53-34.2-106-21.45c-92.32,33.22-160.95-56.24-160.95-56.24" transform="translate(0 -320.88)"/><path class="cls-4" d="M485.23,778.38s43-32-11-144c0,0-72-89,0-173,0,0-157,4-154,150s78.5,167,78.5,167Z" transform="translate(0 -320.88)"/><path class="cls-7" d="M445.06,778.38s-10.83-77-39.83-124A100.77,100.77,0,0,1,393,623.67C383.35,581,397.17,536.46,428.48,506l45.75-44.57" transform="translate(0 -320.88)"/><path class="cls-2" d="M485.23,778.38s43-32-11-144c0,0-72-89,0-173,0,0-157,4-154,150s78.5,167,78.5,167Z" transform="translate(0 -320.88)"/><path class="cls-4" d="M870.66,777.5s-147.14-32.9,40.08-225.39c0,0,80.71,76.49,51.1,171.57-11.9,38.23-50.2,61.83-89,54.27Z" transform="translate(0 -320.88)"/><path class="cls-10" d="M870.66,777.5c-3.23-.72-144-36.16,40.08-225.39,0,0,80.71,76.49,51.1,171.57-11.9,38.23-50.2,61.83-89,54.27Z" transform="translate(0 -320.88)"/><path class="cls-6" d="M872.6,778.59s77.72-117.08,38.14-226.48" transform="translate(0 -320.88)"/><path class="cls-4" d="M261.66,777.5s-147.14-32.9,40.08-225.39c0,0,80.71,76.49,51.1,171.57-11.9,38.23-50.2,61.83-89,54.27Z" transform="translate(0 -320.88)"/><path class="cls-10" d="M261.66,777.5c-3.23-.72-144-36.16,40.08-225.39,0,0,80.71,76.49,51.1,171.57-11.9,38.23-50.2,61.83-89,54.27Z" transform="translate(0 -320.88)"/><path class="cls-6" d="M263.6,778.59s77.72-117.08,38.14-226.48" transform="translate(0 -320.88)"/><path class="cls-4" d="M590.66,777.5s-147.14-32.9,40.08-225.39c0,0,80.71,76.49,51.1,171.57-11.9,38.23-50.2,61.83-89,54.27Z" transform="translate(0 -320.88)"/><path class="cls-10" d="M590.66,777.5c-3.23-.72-144-36.16,40.08-225.39,0,0,80.71,76.49,51.1,171.57-11.9,38.23-50.2,61.83-89,54.27Z" transform="translate(0 -320.88)"/><path class="cls-6" d="M592.6,778.59s77.72-117.08,38.14-226.48" transform="translate(0 -320.88)"/><path class="cls-4" d="M1042.66,777.5s-147.14-32.9,40.08-225.39c0,0,80.71,76.49,51.1,171.57-11.9,38.23-50.2,61.83-89,54.27Z" transform="translate(0 -320.88)"/><path class="cls-10" d="M1042.66,777.5c-3.23-.72-144-36.16,40.08-225.39,0,0,80.71,76.49,51.1,171.57-11.9,38.23-50.2,61.83-89,54.27Z" transform="translate(0 -320.88)"/><path class="cls-6" d="M1044.6,778.59s77.72-117.08,38.14-226.48" transform="translate(0 -320.88)"/><path class="cls-4" d="M768.66,777.5s-147.14-32.9,40.08-225.39c0,0,80.71,76.49,51.1,171.57-11.9,38.23-50.2,61.83-89,54.27Z" transform="translate(0 -320.88)"/><path class="cls-10" d="M768.66,777.5c-3.23-.72-144-36.16,40.08-225.39,0,0,80.71,76.49,51.1,171.57-11.9,38.23-50.2,61.83-89,54.27Z" transform="translate(0 -320.88)"/><path class="cls-6" d="M770.6,778.59s77.72-117.08,38.14-226.48" transform="translate(0 -320.88)"/><path class="cls-4" d="M256.74,766c4.34-3.29,8.42-7.18,9.67-11.91A10.07,10.07,0,0,0,259.65,742c-6.21-1.94-12.84,1.57-17.86,5.12s-10.79,7.58-17.37,6.83c6.81-4.92,10.05-12.92,8.17-20.19a7.79,7.79,0,0,0-2.27-4.1c-3.44-3-9.69-1.71-13.81.65-13.12,7.53-16.78,22.07-16.85,35.15-1.33-4.72-.21-9.63-.24-14.48s-1.66-10.2-6.67-12.8c-3-1.55-6.64-1.85-10.16-1.95-5.9-.18-12.47.3-16.49,3.82-5,4.37-3.71,11.71.64,16.52s11,7.83,17.07,11.15c4.65,2.54,9.34,5.5,12.2,9.49a8.38,8.38,0,0,1,.9,1.7h37A106.31,106.31,0,0,0,256.74,766Z" transform="translate(0 -320.88)"/><path class="cls-4" d="M875.74,766c4.34-3.29,8.42-7.18,9.67-11.91A10.07,10.07,0,0,0,878.65,742c-6.21-1.94-12.84,1.57-17.86,5.12s-10.79,7.58-17.37,6.83c6.81-4.92,10.05-12.92,8.17-20.19a7.79,7.79,0,0,0-2.27-4.1c-3.44-3-9.69-1.71-13.81.65-13.12,7.53-16.78,22.07-16.85,35.15-1.33-4.72-.21-9.63-.24-14.48s-1.66-10.2-6.67-12.8c-3-1.55-6.64-1.85-10.16-1.95-5.9-.18-12.47.3-16.49,3.82-5,4.37-3.71,11.71.64,16.52s11,7.83,17.07,11.15c4.65,2.54,9.34,5.5,12.2,9.49a8.38,8.38,0,0,1,.9,1.7h37A106.31,106.31,0,0,0,875.74,766Z" transform="translate(0 -320.88)"/><path class="cls-11" d="M676.86,694c32.33,60,100.94,85.69,100.94,85.69s16.2-71.47-16.13-131.42-100.94-85.7-100.94-85.7S644.53,634.08,676.86,694Z" transform="translate(0 -320.88)"/><path class="cls-4" d="M699.08,674.31c58.37,35.12,80.85,104.87,80.85,104.87S707.78,792,649.41,756.88,568.57,652,568.57,652,640.72,639.2,699.08,674.31Z" transform="translate(0 -320.88)"/><path class="cls-11" d="M488.86,694c32.33,60,100.94,85.69,100.94,85.69s16.2-71.47-16.13-131.42-100.94-85.7-100.94-85.7S456.53,634.08,488.86,694Z" transform="translate(0 -320.88)"/><path class="cls-4" d="M511.08,674.31c58.37,35.12,80.85,104.87,80.85,104.87S519.78,792,461.41,756.88,380.57,652,380.57,652,452.72,639.2,511.08,674.31Z" transform="translate(0 -320.88)"/><path class="cls-11" d="M296.62,491.42c-55.93,83.73-42.05,191.16-42.05,191.16s104.56-28.32,160.49-112.05,42-191.16,42-191.16S352.55,407.69,296.62,491.42Z" transform="translate(0 -320.88)"/><path class="cls-8" d="M337.76,506.79c-5.46,100.54-81,178.18-81,178.18s-66.69-85.37-61.23-185.91,81-178.18,81-178.18S343.22,406.25,337.76,506.79Z" transform="translate(0 -320.88)"/><path class="cls-4" d="M1092.8,620.86c2.1,114-64.94,155.08-148.55,156.62-1.94,0-3.88,0-5.8,0-3.88,0-7.71-.11-11.51-.31-75.56-4-135-44.72-136.92-150.76-2-109.73,135.67-250.8,146-261.23h0l.6-.6S1090.69,506.86,1092.8,620.86Z" transform="translate(0 -320.88)"/><path class="cls-11" d="M938.42,760.14l53.94-78.38-53.92,86.88v8.88c-3.88,0-7.71-.11-11.51-.31L930.8,663l-.07-.88.1-.17.37-10.79-57.23-85,57.25,77,.18,2.28,2.92-86.26L885,471.08,934.62,544,936,365.22v0l1.83,140.92,46.38-56.74-46.37,68.88.17,77.19L981,520.58,938.08,606.8l.09,42.93,62.38-104.27L938.2,664.7Z" transform="translate(0 -320.88)"/><path class="cls-4" d="M857.8,620.86c2.1,114-64.94,155.08-148.55,156.62-1.94,0-3.88,0-5.8,0-3.88,0-7.71-.11-11.51-.31-75.56-4-135-44.72-136.92-150.76-2-109.73,135.67-250.8,146-261.23h0l.6-.6S855.69,506.86,857.8,620.86Z" transform="translate(0 -320.88)"/><path class="cls-11" d="M703.42,760.14l53.94-78.38-53.92,86.88v8.88c-3.88,0-7.71-.11-11.51-.31L695.8,663l-.07-.88.1-.17.37-10.79-57.23-85,57.25,77,.18,2.28,2.92-86.26L650,471.08,699.62,544,701,365.22v0l1.83,140.92,46.38-56.74-46.37,68.88.17,77.19L746,520.58,703.08,606.8l.09,42.93,62.38-104.27L703.2,664.7Z" transform="translate(0 -320.88)"/><path class="cls-11" d="M1138.8,622.86c2.1,114-64.94,155.08-148.55,156.62-1.94,0-3.88,0-5.8,0-3.88,0-7.71-.11-11.51-.31-75.56-4-135-44.72-136.92-150.76-2-109.73,135.67-250.8,146-261.23h0l.6-.6S1136.69,508.86,1138.8,622.86Z" transform="translate(0 -320.88)"/><path class="cls-8" d="M984.42,762.14l53.94-78.38-53.92,86.88v8.88c-3.88,0-7.71-.11-11.51-.31L976.8,665l-.07-.88.1-.17.37-10.79-57.23-85,57.25,77,.18,2.28,2.92-86.26L931,473.08,980.62,546,982,367.22v0l1.83,140.92,46.38-56.74-46.37,68.88.17,77.19L1027,522.58,984.08,608.8l.09,42.93,62.38-104.27L984.2,666.7Z" transform="translate(0 -320.88)"/><path class="cls-4" d="M302.8,620.86c2.1,114-64.94,155.08-148.55,156.62-1.94,0-3.88,0-5.8,0-3.88,0-7.71-.11-11.51-.31C61.38,773.26,2,732.49,0,626.45c-2-109.73,135.67-250.8,146-261.23h0l.6-.6S300.69,506.86,302.8,620.86Z" transform="translate(0 -320.88)"/><path class="cls-11" d="M148.42,760.14l53.94-78.38-53.92,86.88v8.88c-3.88,0-7.71-.11-11.51-.31L140.8,663l-.07-.88.1-.17.37-10.79L84,566.15l57.26,77,.18,2.28,2.92-86.26L95,471.08,144.62,544,146,365.22v0l1.82,140.92,46.39-56.74-46.37,68.88.17,77.19L191,520.58,148.08,606.8l.09,42.93,62.38-104.27L148.2,664.7Z" transform="translate(0 -320.88)"/><path class="cls-11" d="M918.11,794.87q-54-9.15-103.82-15.71l13.14-25.47c-4.43-1.53-23.89,13-23.89,13l17.24-73.93C798.5,695.5,787.17,771,787.17,771l-24.88-25.52,12.05,28.69c-101.7-12-189.53-16.41-263.4-16.57l11.24-21.8c-4.42-1.54-23.88,13.05-23.88,13.05l17.23-73.93c-22.27,2.69-33.6,78.17-33.6,78.17L457,727.55l12.76,30.39c-61.93,1.24-112.43,5.46-151.41,10.28,11.37-34,50-66.25,50-66.25-29.5,8.77-45,23.48-53.06,37.18a595.66,595.66,0,0,1,34.41-205.72s-61,132.7-53.19,221.76l.93,15.82c-51.7,7.4-77.69,15.1-77.69,15.1Z" transform="translate(0 -320.88)"/><path class="cls-11" d="M1035.11,788.87q-54-9.15-103.82-15.71l13.14-25.47c-4.43-1.53-23.89,13-23.89,13l17.24-73.93C915.5,689.5,904.17,765,904.17,765l-24.88-25.52,12.05,28.69c-101.7-12-189.53-16.41-263.4-16.57l11.24-21.8c-4.42-1.54-23.88,13.05-23.88,13.05l17.23-73.93c-22.27,2.69-33.6,78.17-33.6,78.17L574,721.55l12.76,30.39c-61.93,1.24-112.43,5.46-151.41,10.28,11.37-34,50-66.25,50-66.25-29.5,8.77-45,23.48-53.06,37.18a595.66,595.66,0,0,1,34.41-205.72s-61,132.7-53.19,221.76l.93,15.82c-51.7,7.4-77.69,15.1-77.69,15.1Z" transform="translate(0 -320.88)"/><path class="cls-11" d="M1169.11,798.87q-54-9.15-103.82-15.71l13.14-25.47c-4.43-1.53-23.89,13-23.89,13l17.24-73.93c-22.28,2.69-33.61,78.17-33.61,78.17l-24.88-25.52,12,28.69c-101.7-12-189.53-16.41-263.4-16.57l11.24-21.8c-4.42-1.54-23.88,13.05-23.88,13.05l17.23-73.93c-22.27,2.69-33.6,78.17-33.6,78.17L708,731.55l12.76,30.39c-61.93,1.24-112.43,5.46-151.41,10.28,11.37-34,50-66.25,50-66.25-29.5,8.77-45,23.48-53.06,37.18a595.66,595.66,0,0,1,34.41-205.72s-61,132.7-53.19,221.76l.93,15.82c-51.7,7.4-77.69,15.1-77.69,15.1Z" transform="translate(0 -320.88)"/><path class="cls-11" d="M726.11,788.87q-54-9.15-103.82-15.71l13.14-25.47c-4.43-1.53-23.89,13-23.89,13l17.24-73.93C606.5,689.5,595.17,765,595.17,765l-24.88-25.52,12.05,28.69c-101.7-12-189.53-16.41-263.4-16.57l11.24-21.8c-4.42-1.54-23.88,13.05-23.88,13.05l17.23-73.93c-22.27,2.69-33.6,78.17-33.6,78.17L265,721.55l12.76,30.39c-61.93,1.24-112.43,5.46-151.41,10.28,11.37-34,50-66.25,50-66.25-29.5,8.77-45,23.48-53.06,37.18a595.66,595.66,0,0,1,34.41-205.72s-61,132.7-53.19,221.76l.93,15.82c-51.7,7.4-77.69,15.1-77.69,15.1Z" transform="translate(0 -320.88)"/></svg>